<svg xmlns="http://www.w3.org/2000/svg" xmlns:xlink="http://www.w3.org/1999/xlink" xmlns:fi="http://pattern.flaticon.com/" x="0" y="0" width="500" height="500" viewBox="0 0 700 700"><rect x="0px" y="0px" width="100%" height="100%" opacity="1" fill="#3e5e72"/><defs><g transform="matrix(0.18263303789002616 0.04893637501387514 -0.04893637501387514 0.18263303789002616 -31.819804900256596 -55.11351940686116)" id="L1_9"><path d="M279,94.99 279,299.995 426.001,299.995z" fill="#efefef"/><path d="M84.272,299.995 199,299.995 199,139.99z" fill="#efefef"/><path d="M53.996,335.995l6.338,41.221l4.216,1.705c5.134,2.077,8.854,5.635,12.45,9.074   c5.651,5.408,11.496,11,23.01,11c11.505,0,17.35-5.592,23.004-11.003c5.646-5.406,11.482-10.997,22.996-10.997   c11.494,0,17.08,5.34,23,11c5.651,5.408,11.496,11,23,11c11.505,0,17.35-5.592,23.004-11.003   c5.646-5.406,11.482-10.997,22.986-10.997c11.513,0,17.351,5.591,23,11c5.651,5.408,11.496,11,23,11s17.349-5.592,23.007-11.006   c5.913-5.654,11.499-10.994,22.993-10.994s17.08,5.34,23.001,11.001c5.354,5.121,10.89,10.415,21.248,10.948l1.295,0.067   l1.249-0.346c24.993-6.914,43.309-27.967,46.659-53.635l1.18-9.036H53.996V335.995z" fill="#3e81c8"/><path d="M236.192,41.449c-8.238-7.027-16.999-10.444-26.782-10.444c-13.495,0-26.573,6.313-40.415,12.994   c-6.751,3.256-13.732,6.622-20.688,9.1c-7.344,2.615-13.796,3.886-19.727,3.886c-6.431,0-12.276-1.422-17.873-4.349L99,46.514   v42.628l2.803,2.395c8.229,7.03,16.987,10.448,26.777,10.448h0.01c13.506,0,26.574-6.313,40.48-13.03   c13.223-6.367,26.895-12.95,40.34-12.95c6.429,0,12.279,1.423,17.887,4.352L239,86.468V43.844L236.192,41.449z" fill="#f8a805"/><g><path d="M432.21,294.925L285.5,90.335c-2.03-2.83-5.64-4.02-8.95-2.96c-3.31,1.07-5.55,4.14-5.55,7.62v205c0,4.42,3.58,8,8,8h147    c0,0,0.01,0,0.02,0c4.42,0,8-3.58,8-8C434.02,298.075,433.34,296.305,432.21,294.925z M376.74,291.995    c-0.24-0.91-0.63-1.8-1.21-2.62l-46-65c-2.55-3.61-7.55-4.46-11.15-1.91c-3.61,2.55-4.46,7.54-1.91,11.15l41.31,58.38H287v-172.12    l123.42,172.12H376.74z"/><path d="M201.45,132.375c-3.31-1.06-6.93,0.13-8.95,2.96l-114.74,160c-1.74,2.44-1.98,5.65-0.61,8.31    c1.37,2.67,4.12,4.35,7.12,4.35H199c4.42,0,8-3.58,8-8v-160C207,136.515,204.75,133.445,201.45,132.375z M191,291.995H99.85    l12.23-17.06c0.3,0.04,0.61,0.06,0.92,0.06h61c4.42,0,8-3.58,8-8s-3.58-8-8-8h-50.49l67.49-94.12V291.995z"/><path d="M468,390.995c-8.29,0-12.14-3.68-17.47-8.78c-5.83-5.57-13.01-12.43-26.23-13.15c4.92-9.76,7.7-20.77,7.7-32.42v-0.65    c0-4.42-3.58-8-8-8H247v-284c0-1.39-0.36-2.7-0.99-3.84c-0.01-0.02-0.02-0.03-0.02-0.05c-0.12-0.21-0.25-0.42-0.38-0.62    c-0.05-0.07-0.11-0.13-0.16-0.2c-0.1-0.14-0.2-0.28-0.32-0.42c-0.06-0.08-0.14-0.16-0.21-0.23c-0.11-0.12-0.21-0.24-0.32-0.35    c-0.02-0.01-0.03-0.03-0.05-0.05c-10.63-10.25-22.12-15.23-35.14-15.23c-15.3,0-29.83,7.01-43.89,13.78    c-13.01,6.28-25.29,12.2-36.94,12.2c-4.39,0-8.5-0.85-12.46-2.63c-3.95-1.77-7.77-4.46-11.57-8.12c-2.31-2.23-5.73-2.86-8.68-1.6    c-2.95,1.25-4.87,4.15-4.87,7.36v45c0,2.17,0.88,4.25,2.44,5.76c10.63,10.25,22.13,15.23,35.14,15.23c0,0,0,0,0.01,0    c15.29,0,29.83-7.01,43.88-13.78c13.01-6.28,25.3-12.2,36.94-12.2c7.85,0,14.78,2.73,21.59,8.54v235.45H54    c-2.34,0-4.55,1.02-6.07,2.79c-1.52,1.77-2.19,4.12-1.84,6.43l4.91,31.9c-12.77,0.92-19.81,7.63-25.53,13.1    c-5.33,5.1-9.18,8.78-17.47,8.78c-4.42,0-8,3.58-8,8s3.58,8,8,8c14.71,0,22.37-7.33,28.53-13.22c5.33-5.1,9.18-8.78,17.47-8.78    s12.15,3.68,17.48,8.78c6.15,5.89,13.82,13.22,28.53,13.22s22.37-7.33,28.53-13.22c5.33-5.1,9.18-8.78,17.47-8.78    s12.14,3.68,17.47,8.78c6.15,5.89,13.82,13.22,28.53,13.22s22.37-7.33,28.53-13.22c5.32-5.1,9.18-8.78,17.46-8.78    c8.29,0,12.14,3.68,17.47,8.78c6.16,5.89,13.82,13.22,28.53,13.22s22.37-7.33,28.53-13.22c5.33-5.1,9.18-8.78,17.47-8.78    s12.14,3.68,17.47,8.78c6.16,5.89,13.82,13.22,28.53,13.22s22.37-7.33,28.53-13.22c5.33-5.1,9.18-8.78,17.47-8.78    s12.14,3.68,17.47,8.78c6.16,5.89,13.82,13.22,28.53,13.22c4.42,0,8-3.58,8-8S472.42,390.995,468,390.995z M209.41,68.005    c-15.3,0-29.83,7.01-43.89,13.78c-13,6.28-25.29,12.2-36.93,12.2h-0.01c-7.85,0-14.78-2.72-21.58-8.53v-25.73    c6.75,3.53,13.9,5.26,21.58,5.26c7.65,0,15.11-1.75,22.41-4.35s14.45-6.04,21.48-9.43c13.01-6.28,25.3-12.2,36.94-12.2    c7.85,0,14.78,2.72,21.59,8.53v25.73C224.24,69.735,217.09,68.005,209.41,68.005z M374.66,390.955    c-7.38-0.38-11.1-3.93-16.13-8.74c-6.16-5.89-13.82-13.22-28.53-13.22s-22.37,7.33-28.53,13.22c-5.33,5.1-9.18,8.78-17.47,8.78    s-12.14-3.68-17.47-8.78c-6.15-5.89-13.82-13.22-28.53-13.22c-14.7,0-22.37,7.33-28.52,13.22c-5.33,5.1-9.18,8.78-17.47,8.78    s-12.14-3.68-17.47-8.78c-6.16-5.89-13.82-13.22-28.53-13.22s-22.38,7.33-28.53,13.22c-5.33,5.1-9.18,8.78-17.47,8.78    s-12.15-3.68-17.48-8.78c-3.91-3.74-8.43-8.06-14.98-10.71l-4.23-27.51h352.2C412.57,366.585,396.17,385.005,374.66,390.955z"/><path d="M376,436.995c-8.289,0-12.14-3.683-17.469-8.781c-6.157-5.89-13.819-13.219-28.529-13.219s-22.373,7.33-28.53,13.219    c-5.33,5.098-9.18,8.781-17.47,8.781c-8.289,0-12.14-3.683-17.469-8.781c-6.157-5.89-13.819-13.219-28.528-13.219    c-4.418,0-8,3.582-8,8c0,4.419,3.582,8,8,8c8.289,0,12.14,3.683,17.469,8.781c6.157,5.89,13.819,13.219,28.528,13.219    c14.71,0,22.373-7.33,28.53-13.219c5.33-5.098,9.18-8.781,17.47-8.781s12.14,3.683,17.469,8.781    c6.157,5.89,13.819,13.219,28.529,13.219c4.419,0,8-3.581,8-8C384,440.577,380.418,436.995,376,436.995z"/></g></g><g transform="matrix(0.1435558622240771 -0.03846567735169497 0.03846567735169497 0.1435558622240771 132.1359062326379 150.26628411353406)" id="L1_10"><rect x="222px" y="363px" width="38px" height="100px" fill="#f8a805"/><rect x="139px" y="363px" width="83px" height="100px" fill="#a18671"/><rect x="101px" y="363px" width="38px" height="100px" fill="#f8a805"/><rect x="80px" y="163px" width="200px" height="200px" fill="#f8a805"/><rect x="103px" y="128px" width="155px" height="35px" fill="#a18671"/><path d="M228.502,93 132.498,93 121.998,128 239.002,128z" fill="#f8a805"/><path d="M180.5,7.995 145.506,93 215.494,93z" fill="#a18671"/><path d="M189.446,193.506l-8.946-1.066V263h-70.561l1.067,8.947C115.155,306.753,144.73,333,179.8,333h1.4   c38.212,0,69.3-31.088,69.3-69.3v-1.4C250.5,227.229,224.253,197.655,189.446,193.506z" fill="#ecf0f1"/><path d="M171.552,193.507c-31.846,3.802-56.742,28.699-60.545,60.544L109.938,263H180.5v-70.562   L171.552,193.507z" fill="#ecf0f1"/><g><path d="M280.5,155H266v-27c0-4.42-3.58-8-8-8h-13.05l-8.79-29.3c-1.01-3.38-4.13-5.7-7.66-5.7h-7.64L187.9,4.95    C186.66,1.96,183.74,0,180.5,0s-6.16,1.96-7.4,4.95L140.14,85h-7.64c-3.53,0-6.65,2.32-7.66,5.7l-8.79,29.3H103    c-4.42,0-8,3.58-8,8v27H80.5c-4.42,0-8,3.58-8,8v200c0,4.42,3.58,8,8,8H93v100h175V371h12.5c4.42,0,8-3.58,8-8V163    C288.5,158.58,284.92,155,280.5,155z M180.5,29.01L203.55,85h-46.1L180.5,29.01z M138.45,101h84.1l5.7,19h-95.5L138.45,101z     M111,136h139v19H111V136z M131,455h-22v-84h22V455z M214,455h-67v-84h67V455z M252,455h-22v-84h22V455z M272.5,355h-184V171h184    V355z"/><path d="M181.2,185h-1.4c-42.62,0-77.3,34.68-77.3,77.3v1.4c0,42.62,34.68,77.3,77.3,77.3h1.4c42.62,0,77.3-34.68,77.3-77.3v-1.4    C258.5,219.68,223.82,185,181.2,185z M172.5,201.45V255h-53.55C122.29,227.03,144.53,204.79,172.5,201.45z M242.5,263.7    c0,33.8-27.5,61.3-61.3,61.3h-1.4c-31.33,0-57.23-23.63-60.85-54h61.55c4.42,0,8-3.58,8-8v-61.55c30.37,3.62,54,29.52,54,60.85    V263.7z"/><path d="M155.34,238.41c-1.57,1.61-3.64,2.41-5.72,2.41c-2.02,0-4.04-0.76-5.59-2.28c-3.16-3.08-3.22-8.15-0.13-11.31    s8.15-3.22,11.31-0.13S158.43,235.25,155.34,238.41z"/><path d="M217.17,298.69c-1.56,1.62-3.65,2.43-5.73,2.43c-2.01,0-4.02-0.76-5.58-2.27c-3.17-3.08-3.24-8.15-0.15-11.31    c3.08-3.17,8.14-3.24,11.31-0.16S220.26,295.52,217.17,298.69z"/><path d="M156.01,299.45c-1.57,1.6-3.65,2.4-5.72,2.4c-2.02,0-4.04-0.76-5.6-2.29c-3.15-3.09-3.21-8.15-0.12-11.31    c3.09-3.15,8.16-3.21,11.32-0.12C159.04,291.22,159.1,296.29,156.01,299.45z"/><path d="M216.37,237.68c-1.56,1.6-3.64,2.41-5.72,2.41c-2.02,0-4.03-0.76-5.59-2.27c-3.16-3.09-3.23-8.15-0.14-11.32    c3.08-3.16,8.15-3.22,11.31-0.14C219.4,229.45,219.46,234.51,216.37,237.68z"/><path d="M231.5,262.41c0.01,4.42-3.56,8.01-7.98,8.03c-0.01,0-0.01,0-0.02,0c-4.41,0-7.99-3.57-8-7.98    c-0.01-4.42,3.56-8.01,7.97-8.02C227.89,254.42,231.49,258,231.5,262.41z"/><path d="M189.1,305.97c0.02,4.42-3.54,8.01-7.96,8.03h-0.21c-4.42,0-8-3.58-8-8s3.58-8,8-8h0.14    C185.49,297.98,189.09,301.55,189.1,305.97z"/><path d="M396.157,90.699C387.969,82.51,377.081,78,365.5,78c-9.082,0-17.738,2.774-25,7.92c-7.262-5.146-15.918-7.92-25-7.92    c-11.581,0-22.469,4.51-30.657,12.699c-3.124,3.124-3.124,8.189,0,11.313c3.125,3.125,8.189,3.124,11.314,0    C301.323,96.846,308.193,94,315.5,94s14.177,2.846,19.343,8.012c1.501,1.501,3.535,2.343,5.657,2.343s4.156-0.843,5.657-2.343    C351.323,96.846,358.193,94,365.5,94s14.177,2.846,19.343,8.012c3.125,3.125,8.189,3.125,11.314,0    C399.281,98.888,399.281,93.823,396.157,90.699z"/></g></g><g transform="matrix(0.08403361588716507 0 0 0.08403361588716507 67.5 67.5)" id="L1_11"><path d="M428.7,9h-0.4c-10.918,0-19.8,8.882-19.8,19.8v315.01c0,33.189-27.001,60.19-60.19,60.19h-59.62   c-33.189,0-60.19-27.001-60.19-60.19V333h-40v10.81c0,55.245,44.945,100.19,100.19,100.19h59.619   c55.245,0,100.19-44.945,100.19-100.19V28.8C448.5,17.882,439.618,9,428.7,9z" fill="#a18671"/><path d="M154.461,298l1.378,9.186c2.206,14.716,15.1,25.814,29.991,25.814h49.34   c14.892,0,27.785-11.098,29.991-25.814l1.378-9.186H154.461z" fill="#f8a805"/><path d="M96.5,333c-11.579,0-21,9.42-21,21s9.421,21,21,21s21-9.42,21-21S108.079,333,96.5,333z" fill="#ecf0f1"/><path d="M142.5,398c-19.299,0-35,15.701-35,35s15.701,35,35,35s35-15.701,35-35S161.799,398,142.5,398z" fill="#ecf0f1"/><path d="M320,250c-15.163,0-27.5,12.336-27.5,27.5S304.837,305,320,305c15.163,0,27.5-12.336,27.5-27.5   S335.163,250,320,250z" fill="#ecf0f1"/><path d="M164.996,140.5L46.171,259.336l8.066,5.423C64.202,271.459,75.818,275,87.83,275h27.72   c30.023,0,54.45-24.426,54.45-54.45v-0.85c0-16.377,13.323-29.7,29.7-29.7h0.6c16.377,0,29.7,13.323,29.7,29.7v0.85   c0,30.024,24.426,54.45,54.45,54.45h7.536l1.745-5.632C297.265,257.964,308.066,250,320,250c7.858,0,15.368,3.399,20.604,9.326   l5.274,5.971l5.993-5.249c13.109-11.483,20.629-28.022,20.629-45.378V140.5H164.996z" fill="#3e81c8"/><path d="M327.5,168c-12.131,0-22,9.869-22,22s9.869,22,22,22c12.131,0,22-9.869,22-22S339.631,168,327.5,168   z" fill="#ecf0f1"/><path d="M124.996,140.5l-94.301,94.311l2.343,5.066c2.036,4.402,4.604,8.563,7.634,12.367l5.581,7.006   L165.004,140.5H124.996z" fill="#3e81c8"/><path d="M27.5,140.5v74.17c0,1.438,0.061,2.905,0.185,4.487l1.36,17.302l95.959-95.959H27.5z" fill="#3e81c8"/><rect x="27px" y="100px" width="345px" height="40px" fill="#f8a805"/><path d="M170.5,8c-16.542,0-30,13.458-30,30s13.458,30,30,30s30-13.458,30-30S187.042,8,170.5,8z" fill="#ecf0f1"/><g><path d="M428.7,1h-0.4c-15.33,0-27.8,12.47-27.8,27.8v315.01c0,28.78-23.41,52.19-52.19,52.19h-59.62    c-28.78,0-52.19-23.41-52.19-52.19v-2.84c20.52-0.71,37-17.61,37-38.3V298c0-4.42-3.58-8-8-8h-110c-4.42,0-8,3.58-8,8v4.67    c0,19.32,14.38,35.35,33,37.95v3.19c0,59.66,48.53,108.19,108.19,108.19h59.62c59.66,0,108.19-48.53,108.19-108.19V28.8    C456.5,13.47,444.03,1,428.7,1z M163.75,306h93.5c-1.61,10.74-10.9,19-22.08,19h-49.34C174.65,325,165.36,316.74,163.75,306z     M440.5,343.81c0,50.83-41.36,92.19-92.19,92.19h-59.62c-50.83,0-92.19-41.36-92.19-92.19V341h24v2.81    c0,37.6,30.59,68.19,68.19,68.19h59.62c37.6,0,68.19-30.59,68.19-68.19V28.8c0-6.51,5.29-11.8,11.8-11.8h0.4    c6.51,0,11.8,5.29,11.8,11.8L440.5,343.81L440.5,343.81z"/><path d="M96.5,325c-15.99,0-29,13.01-29,29s13.01,29,29,29s29-13.01,29-29S112.49,325,96.5,325z M96.5,367c-7.17,0-13-5.83-13-13    s5.83-13,13-13s13,5.83,13,13S103.67,367,96.5,367z"/><path d="M142.5,390c-23.71,0-43,19.29-43,43s19.29,43,43,43s43-19.29,43-43S166.21,390,142.5,390z M142.5,460    c-14.89,0-27-12.11-27-27s12.11-27,27-27s27,12.11,27,27S157.39,460,142.5,460z"/><path d="M327.5,160c-16.54,0-30,13.46-30,30s13.46,30,30,30c16.54,0,30-13.46,30-30S344.04,160,327.5,160z M327.5,204    c-7.72,0-14-6.28-14-14s6.28-14,14-14c7.72,0,14,6.28,14,14S335.22,204,327.5,204z"/><path d="M372.5,92.5h-345c-4.42,0-8,3.58-8,8v114.17c0,37.68,30.65,68.33,68.33,68.33h27.72c34.43,0,62.45-28.02,62.45-62.45    v-0.85c0-11.97,9.73-21.7,21.7-21.7h0.6c11.97,0,21.7,9.73,21.7,21.7v0.85c0,34.43,28.02,62.45,62.45,62.45h0.48    c2.65,16.97,17.37,30,35.07,30c19.57,0,35.5-15.93,35.5-35.5c0-3.14-0.42-6.19-1.19-9.09c15.94-12.52,26.19-31.96,26.19-53.74    V100.5C380.5,96.08,376.92,92.5,372.5,92.5z M35.66,218.53c-0.1-1.28-0.16-2.56-0.16-3.86V148.5h70.19L35.66,218.53z M40.3,236.52    l88.01-88.02h17.38l-98.76,98.76C44.31,243.97,42.08,240.37,40.3,236.52z M320,297c-10.75,0-19.5-8.75-19.5-19.5    S309.25,258,320,258s19.5,8.75,19.5,19.5S330.75,297,320,297z M364.5,214.67c0,15.68-6.94,29.76-17.9,39.36    C340.09,246.66,330.58,242,320,242c-15.92,0-29.43,10.54-33.91,25h-1.64c-25.61,0-46.45-20.84-46.45-46.45v-0.85    c0-20.79-16.91-37.7-37.7-37.7h-0.6c-20.79,0-37.7,16.91-37.7,37.7v0.85c0,25.61-20.84,46.45-46.45,46.45H87.83    c-10.77,0-20.8-3.28-29.13-8.88L168.31,148.5H364.5V214.67z M364.5,132.5h-329v-24h329V132.5z"/><path d="M170.5,0c-20.95,0-38,17.05-38,38s17.05,38,38,38s38-17.05,38-38S191.45,0,170.5,0z M170.5,60c-12.13,0-22-9.87-22-22    s9.87-22,22-22s22,9.87,22,22S182.63,60,170.5,60z"/></g></g><g transform="matrix(0.0917431190609932 0 0 0.0917431190609932 238.5 67.5)" id="L1_12"><path d="M428.003,218l-44.23-37.856l23.464-53.292l-56.312-14.833l-1.978-58.198l-57.183,10.964   l-27.038-51.563l-46.729,34.781L171.274,13.22l-27.037,51.573L87.052,53.82l-1.981,58.193L28.763,126.85l23.464,53.292L7.997,218   l44.231,37.857l-23.464,53.292l56.311,14.833l1.978,58.198l57.093-10.956c0.065-0.012,0.104-0.016,0.09-0.009l27.039,51.564   l46.719-34.782l46.733,34.781l27.035-51.572l57.186,10.973l1.98-58.194l56.309-14.836l-23.464-53.292L428.003,218z M358,218   c0,77.196-62.804,140-140,140S78,295.196,78,218S140.804,78,218,78S358,140.803,358,218z" fill="#f5c525"/><path d="M218,78c-77.196,0-140,62.804-140,140s62.804,140,140,140s140-62.804,140-140S295.196,78,218,78z" fill="#f8a805"/><g><path d="M218,70c-81.61,0-148,66.39-148,148s66.39,148,148,148s148-66.39,148-148S299.61,70,218,70z M218,350    c-72.79,0-132-59.21-132-132S145.21,86,218,86c72.78,0,132,59.21,132,132S290.78,350,218,350z"/><path d="M433.2,211.92l-39.71-33.99l21.07-47.85c0.94-2.14,0.9-4.59-0.12-6.7c-1.01-2.11-2.9-3.66-5.16-4.26l-50.56-13.33    l-1.78-52.25c-0.08-2.33-1.18-4.52-3.01-5.98c-1.82-1.46-4.2-2.04-6.49-1.6l-51.35,9.85l-24.28-46.3    c-1.09-2.08-3.03-3.57-5.31-4.09s-4.68-0.01-6.56,1.38L218,38.03L176.05,6.8c-1.88-1.39-4.27-1.9-6.55-1.38s-4.22,2.01-5.31,4.09    l-24.28,46.3l-51.35-9.85c-2.3-0.44-4.67,0.14-6.5,1.6c-1.82,1.46-2.92,3.65-3,5.98l-1.78,52.25l-50.56,13.33    c-2.26,0.6-4.15,2.15-5.17,4.26c-1.01,2.11-1.05,4.56-0.11,6.7l21.07,47.85L2.8,211.92C1.02,213.44,0,215.66,0,218    s1.02,4.56,2.8,6.08l39.71,33.99l-21.07,47.85c-0.95,2.14-0.9,4.59,0.11,6.7c1.02,2.11,2.91,3.66,5.17,4.26l50.56,13.33    l1.78,52.25c0.08,2.33,1.17,4.52,3,5.98c1.83,1.46,4.21,2.04,6.5,1.6l51.35-9.85l24.28,46.3c1.09,2.08,3.03,3.57,5.31,4.09    s4.67,0.01,6.55-1.38L218,397.97l41.94,31.23c1.4,1.03,3.08,1.58,4.78,1.58c0.59,0,1.19-0.07,1.78-0.2    c2.28-0.52,4.22-2.01,5.31-4.09l24.28-46.3l51.34,9.85c2.3,0.44,4.68-0.14,6.5-1.6c1.83-1.46,2.93-3.65,3.01-5.98l1.78-52.25    l50.55-13.33c2.27-0.6,4.16-2.15,5.17-4.26c1.02-2.11,1.06-4.56,0.12-6.7l-21.07-47.85l39.71-33.99c1.78-1.52,2.8-3.74,2.8-6.08    S434.98,213.44,433.2,211.92z M378.57,249.78c-2.68,2.29-3.54,6.07-2.12,9.3l19.69,44.72l-47.25,12.45    c-3.42,0.9-5.84,3.93-5.96,7.46l-1.66,48.85l-48-9.21c-3.46-0.66-6.95,1.02-8.59,4.15l-22.69,43.27l-39.22-29.19    c-2.83-2.11-6.71-2.11-9.55,0l-39.21,29.19l-22.69-43.27c-1.4-2.67-4.15-4.29-7.08-4.29c-0.5,0-1.01,0.05-1.51,0.14l-48,9.21    l-1.66-48.85c-0.12-3.53-2.54-6.56-5.96-7.46L39.86,303.8l19.69-44.72c1.42-3.23,0.56-7.01-2.12-9.3L20.3,218l37.13-31.78    c2.68-2.29,3.54-6.07,2.12-9.3L39.86,132.2l47.25-12.45c3.42-0.9,5.84-3.93,5.96-7.46l1.66-48.85l48,9.21    c3.46,0.66,6.95-1.02,8.59-4.15l22.69-43.27l39.21,29.19c2.84,2.11,6.72,2.11,9.55,0l39.22-29.19l22.69,43.27    c1.64,3.13,5.13,4.81,8.59,4.15l48-9.21l1.66,48.85c0.12,3.53,2.54,6.56,5.96,7.46l47.25,12.45l-19.69,44.72    c-1.42,3.23-0.56,7.01,2.12,9.3L415.7,218L378.57,249.78z"/></g></g><g transform="matrix(0.11249606311321259 0 0 0.11249606311321259 62.5 237.5)" id="L1_13"><path d="M142.076,150.159c-3.116-14.683-16.277-25.339-31.296-25.339c-6.001,0-11.842,1.663-16.898,4.825   C88.19,116.386,75.197,107.82,60.78,107.82c-19.851,0-36,16.149-36,36c0,9.41,3.206,16,3.206,16h116.141L142.076,150.159z" fill="#efefef"/><path d="M227.976,50.339C224.86,35.657,211.699,25,196.68,25c-6.002,0-11.844,1.664-16.899,4.825   C174.09,16.566,161.097,8,146.68,8c-19.851,0-36,16.149-36,36c0,9.48,3.167,16,3.167,16h116.178L227.976,50.339z" fill="#efefef"/><path d="M418.976,304.339C415.86,289.657,402.699,279,387.68,279c-6.002,0-11.844,1.664-16.899,4.825   C365.09,270.566,352.097,262,337.68,262c-19.851,0-36,16.149-36,36c0,9.064,3.167,16,3.167,16h116.178L418.976,304.339z" fill="#efefef"/><path d="M330.077,113.531 397.93,181.383 397.93,45.664z" fill="#3e81c8"/><path d="M330.069,113.526 221.145,222.463 397.936,181.381z" fill="#3e81c8"/><path d="M262.216,45.669 330.069,113.524 397.937,45.669z" fill="#f8a805"/><path d="M262.219,45.664 221.136,222.467 330.073,113.53z" fill="#f8a805"/><g><path d="M110.78,116.82c-4.65,0-9.23,0.8-13.54,2.35c-8.09-11.97-21.66-19.35-36.46-19.35c-24.26,0-44,19.74-44,44    c0,6.87,1.54,13.45,4.59,19.56c1.35,2.72,4.12,4.44,7.16,4.44h114.11c4.13,0,7.59-3.15,7.96-7.28c0.12-1.25,0.18-2.51,0.18-3.72    C150.78,134.76,132.83,116.82,110.78,116.82z M33.94,151.82c-0.77-2.57-1.16-5.25-1.16-8c0-15.44,12.56-28,28-28    c11.21,0,21.32,6.66,25.75,16.98c0.92,2.14,2.73,3.78,4.96,4.47c2.23,0.7,4.65,0.39,6.63-0.85c3.77-2.35,8.15-3.6,12.66-3.6    c11.52,0,21.17,8.16,23.47,19L33.94,151.82L33.94,151.82z"/><path d="M196.68,17c-4.65,0-9.23,0.8-13.54,2.35C175.05,7.38,161.48,0,146.68,0c-24.26,0-44,19.74-44,44    c0,6.87,1.54,13.45,4.59,19.56c1.35,2.72,4.12,4.44,7.16,4.44h114.11c4.13,0,7.59-3.16,7.96-7.28c0.12-1.26,0.18-2.51,0.18-3.72    C236.68,34.94,218.73,17,196.68,17z M119.83,52c-0.76-2.58-1.15-5.25-1.15-8c0-15.44,12.56-28,28-28    c11.21,0,21.32,6.66,25.75,16.98c0.92,2.14,2.73,3.78,4.96,4.47c2.23,0.7,4.65,0.39,6.63-0.85c3.77-2.35,8.15-3.6,12.66-3.6    c11.52,0,21.17,8.16,23.47,19C220.15,52,119.83,52,119.83,52z"/><path d="M387.68,271c-4.65,0-9.23,0.8-13.54,2.35c-8.09-11.97-21.66-19.35-36.46-19.35c-24.26,0-44,19.74-44,44    c0,6.87,1.54,13.45,4.59,19.56c1.35,2.72,4.12,4.44,7.16,4.44h114.11c4.13,0,7.59-3.16,7.96-7.28c0.12-1.26,0.18-2.51,0.18-3.72    C427.68,288.94,409.73,271,387.68,271z M310.83,306c-0.76-2.58-1.15-5.25-1.15-8c0-15.44,12.56-28,28-28    c11.21,0,21.32,6.66,25.75,16.98c0.92,2.14,2.73,3.78,4.96,4.47c2.23,0.7,4.65,0.39,6.63-0.85c3.77-2.35,8.15-3.6,12.66-3.6    c11.52,0,21.17,8.16,23.47,19H310.83z"/><path d="M397.93,37.67H262.22c-3.73,0-6.96,2.56-7.8,6.19l-41.07,176.79c-0.01,0.03-0.14,0.69-0.17,0.99v0.03    c-0.03,0.26-0.04,0.53-0.04,0.79v41.76c0,9.51-7.74,17.24-17.25,17.24h-35.51c-18.33,0-33.24,14.92-33.24,33.25v0.51    c0,18.33,14.91,33.24,33.24,33.24h29.51c9.51,0,17.25,7.74,17.25,17.25v3.51c0,9.51-7.74,17.24-17.25,17.24h-44.51    c-18.33,0-33.24,14.92-33.24,33.25v16.75c0,4.42,3.58,8,8,8s8-3.58,8-8v-16.75c0-9.51,7.73-17.25,17.24-17.25h44.51    c18.33,0,33.25-14.91,33.25-33.24v-3.51c0-18.33-14.92-33.25-33.25-33.25h-29.51c-9.51,0-17.24-7.73-17.24-17.24v-0.51    c0-9.51,7.73-17.25,17.24-17.25h35.51c18.33,0,33.25-14.91,33.25-33.24v-35.4l170.6-39.64c3.63-0.84,6.19-4.07,6.19-7.79V45.67    C405.93,41.25,402.35,37.67,397.93,37.67z M378.62,53.67l-48.55,48.54l-48.54-48.54H378.62z M266.75,61.51l52.01,52.02l-83.5,83.5    L266.75,61.51z M246.58,208.34l83.49-83.5l52.02,52.01L246.58,208.34z M389.93,162.07l-48.54-48.54l48.54-48.55V162.07z"/></g></g><g transform="matrix(0.15021459758281708 0 0 0.15021459758281708 315 140)" id="L1_14"><path d="M121.5,182.5C95.309,182.5,74,203.809,74,230c0,21.35,31.663,60.811,41.367,72.397l6.136,7.326   l6.132-7.329C137.339,290.797,169,251.302,169,230C169,203.809,147.691,182.5,121.5,182.5z" fill="#f8a805"/><path d="M343.5,121.5c-26.191,0-47.5,21.309-47.5,47.5c0,21.35,31.663,60.811,41.367,72.397l6.136,7.326   l6.132-7.329C359.339,229.797,391,190.302,391,169C391,142.809,369.691,121.5,343.5,121.5z" fill="#f8a805"/><path d="M454.198,92.6c-22.769-14.035-46.502-21.874-72.558-23.964L373,67.942v63.705l2.591,2.377   C385.383,143.011,391,155.76,391,169c0,6.17-2.9,18.007-16.716,39.354L373,210.337V332.99l7.421,0.538   c23.511,1.706,45.014,8.048,65.738,19.389l11.84,6.479V94.944L454.198,92.6z" fill="#d1d5d8"/><path d="M343.5,121.5c6.361,0,12.549,1.249,18.393,3.712L373,129.893V67.964l-8.115,0.117   c-40.592,0.585-81.352,14.161-126.603,30.504L233,100.493v264.983l10.706-3.847c41.022-14.743,81.175-28.02,121.4-28.55   l7.895-0.104v-121.24l-14.317,18.425c-7.299,9.394-13.468,16.41-15.185,18.332C327.069,230.088,296,189.788,296,169   C296,142.809,317.309,121.5,343.5,121.5z" fill="#ecf0f1"/><path d="M222.293,104.362c-41.008,14.747-81.149,28.028-121.398,28.559L93,133.025v57.213l10.961-4.366   c5.616-2.238,11.517-3.372,17.539-3.372c26.191,0,47.5,21.309,47.5,47.5c0,20.788-31.069,61.088-47.514,79.479   c-1.088-1.213-6.886-7.738-14.188-17.062L93,274.161v123.875l8.115-0.117c40.565-0.585,81.335-14.166,126.603-30.515l5.282-1.908   V100.512L222.293,104.362z" fill="#d1d5d8"/><path d="M90.269,194.259l2.731-2.39v-58.873l-7.424-0.535c-23.494-1.695-44.997-8.034-65.736-19.379   L8,106.605v264.451l3.802,2.344c22.769,14.035,46.502,21.874,72.558,23.964l8.64,0.694V272.836l-1.315-2.001   C77.068,248.603,74,236.357,74,230C74,216.337,79.93,203.31,90.269,194.259z" fill="#ecf0f1"/><path d="M121.5,212.5c-9.649,0-17.5,7.851-17.5,17.5s7.851,17.5,17.5,17.5S139,239.649,139,230   S131.149,212.5,121.5,212.5z" fill="#d1d5d8"/><path d="M343.5,151.5c-9.649,0-17.5,7.851-17.5,17.5s7.851,17.5,17.5,17.5S361,178.649,361,169   S353.149,151.5,343.5,151.5z" fill="#d1d5d8"/><g><path d="M462.36,88.3c-29.22-19.01-60.25-28.25-94.84-28.25c-46.24,0-92.5,16.74-137.24,32.93    c-43.45,15.71-88.37,31.97-131.8,31.97c-31.4,0-59.57-8.4-86.12-25.66c-2.46-1.6-5.6-1.73-8.17-0.33c-2.58,1.4-4.19,4.1-4.19,7.03    v265c0,2.71,1.37,5.23,3.64,6.71c29.23,19.01,60.24,28.25,94.81,28.25h0.03c46.23-0.01,92.49-16.74,137.23-32.93    c43.45-15.71,88.37-31.97,131.81-31.97c31.4,0,59.57,8.4,86.12,25.66c2.46,1.6,5.6,1.73,8.17,0.33c2.58-1.4,4.19-4.1,4.19-7.03    v-265C466,92.3,464.63,89.78,462.36,88.3z M85,389.39c-24.67-1.98-47.39-9.48-69-22.8V120.1c21.68,11.86,44.46,18.57,69,20.34    v47.8C73.37,198.42,66,213.36,66,230c0,12.65,8.79,29.7,19,45.23V389.39z M82,230c0-21.78,17.72-39.5,39.5-39.5    S161,208.22,161,230c0,15.06-22.23,46.62-39.5,67.26C104.22,276.63,82,245.08,82,230z M225,359.88    c-40.95,14.79-83.11,29.45-124,30.04v-92.57c7.08,9.04,12.88,15.63,14.53,17.47c1.52,1.71,3.69,2.68,5.97,2.68    s4.45-0.97,5.97-2.68C132.54,309.14,177,258.46,177,230c0-30.6-24.9-55.5-55.5-55.5c-7.24,0-14.15,1.41-20.5,3.94v-37.52    c41.72-0.55,83.43-14.44,124-29.03V359.88z M365,325.08c-41.72,0.55-83.43,14.44-124,29.02V106.11    c40.95-14.79,83.11-29.44,124-30.03v41.76c-6.62-2.79-13.88-4.34-21.5-4.34c-30.6,0-55.5,24.9-55.5,55.5    c0,28.46,44.46,79.14,49.53,84.82c1.52,1.71,3.69,2.68,5.97,2.68s4.45-0.97,5.97-2.68c1.72-1.93,8-9.06,15.53-18.75V325.08z     M343.5,236.26C326.22,215.63,304,184.08,304,169c0-21.78,17.72-39.5,39.5-39.5S383,147.22,383,169    C383,184.06,360.77,215.62,343.5,236.26z M450,345.9c-21.69-11.87-44.46-18.57-69-20.35V212.7c9.78-15.11,18-31.46,18-43.7    c0-16.16-6.94-30.72-18-40.87V76.61c24.67,1.98,47.39,9.48,69,22.8V345.9z"/><path d="M121.5,204.5c-14.06,0-25.5,11.44-25.5,25.5s11.44,25.5,25.5,25.5S147,244.06,147,230S135.56,204.5,121.5,204.5z     M121.5,239.5c-5.24,0-9.5-4.26-9.5-9.5s4.26-9.5,9.5-9.5s9.5,4.26,9.5,9.5S126.74,239.5,121.5,239.5z"/><path d="M343.5,143.5c-14.06,0-25.5,11.44-25.5,25.5s11.44,25.5,25.5,25.5S369,183.06,369,169S357.56,143.5,343.5,143.5z     M343.5,178.5c-5.24,0-9.5-4.26-9.5-9.5s4.26-9.5,9.5-9.5s9.5,4.26,9.5,9.5S348.74,178.5,343.5,178.5z"/><path d="M128.54,347.91c-1.37,0.27-2.74,0.53-4.11,0.78c-0.48,0.08-0.97,0.13-1.44,0.13c-3.79,0-7.16-2.71-7.86-6.58    c-0.79-4.34,2.1-8.51,6.44-9.3c1.3-0.23,2.59-0.48,3.89-0.73c4.33-0.85,8.54,1.97,9.39,6.31    C135.7,342.85,132.88,347.06,128.54,347.91z"/><path d="M203.24,325.97c-2.4,0.85-4.8,1.7-7.2,2.54c-0.87,0.3-1.76,0.45-2.64,0.45c-3.3,0-6.4-2.06-7.55-5.36    c-1.46-4.17,0.74-8.74,4.91-10.19c2.37-0.83,4.74-1.67,7.11-2.51c4.17-1.48,8.74,0.69,10.22,4.85    C209.57,319.92,207.4,324.49,203.24,325.97z"/><path d="M274.53,301.26c-2.38,0.72-4.76,1.46-7.14,2.22c-0.81,0.26-1.62,0.38-2.42,0.38c-3.4,0-6.54-2.18-7.63-5.58    c-1.33-4.21,1-8.71,5.21-10.05c2.45-0.78,4.89-1.54,7.34-2.28c4.23-1.28,8.7,1.11,9.98,5.33    C281.15,295.51,278.76,299.98,274.53,301.26z"/><path d="M166.93,338.11c-2.46,0.75-4.92,1.49-7.38,2.2c-0.74,0.21-1.49,0.31-2.22,0.31c-3.48,0-6.67-2.28-7.68-5.79    c-1.23-4.24,1.22-8.68,5.47-9.9c2.38-0.69,4.76-1.39,7.15-2.12c4.22-1.29,8.69,1.09,9.98,5.32    C173.54,332.36,171.16,336.83,166.93,338.11z"/><path d="M314.43,291.37c-1.3,0.24-2.59,0.48-3.89,0.74c-0.52,0.1-1.04,0.15-1.55,0.15c-3.75,0-7.09-2.65-7.84-6.46    c-0.85-4.34,1.97-8.54,6.31-9.39c1.37-0.27,2.74-0.53,4.11-0.78c4.36-0.79,8.51,2.1,9.3,6.44    C321.66,286.42,318.77,290.58,314.43,291.37z"/><path d="M349.43,283.37c-1.3,0.24-2.59,0.48-3.89,0.74c-0.52,0.1-1.04,0.15-1.55,0.15c-3.75,0-7.09-2.65-7.84-6.46    c-0.85-4.34,1.97-8.54,6.31-9.39c1.37-0.27,2.74-0.53,4.11-0.78c4.35-0.79,8.51,2.1,9.3,6.44    C356.66,278.42,353.77,282.58,349.43,283.37z"/></g></g><g transform="matrix(0.0805836170911789 0 0 0.0805836170911789 69.8847057390958 332.41352850923624)" id="L1_17"><path d="M0,353.436v59c0,1.36,0.34,2.73,1.07,3.99c1.48,2.57,4.17,4.01,6.93,4.01v-8   c0.41-0.25,46.64-26.95,128.51-37.53c1.05-0.14,2.13-0.28,3.21-0.41l6.111-0.832l2.36,4.934c1.043,2.225,2.02,4.311,3.069,6.499   h81.23c1.75,0,3.17-1.42,3.17-3.17v-10.26l8.61,0.65c58.24,4.42,118.03,18.09,177.71,40.64l14.012,5.292   c0.875-1.1,1.348-2.49,1.348-3.892v-60.92L0,353.436L0,353.436z" fill="#3e81c8"/><path d="M435.99,418.246c-1.01,1.3-2.6,2.19-4.67,2.19H8v-8c0.41-0.25,46.64-26.95,128.51-37.53   c1.05-0.14,2.13-0.28,3.21-0.41l6.111-0.832l2.36,4.934c1.13,2.14,1.879,4.389,3.069,6.499h81.23c1.75,0,3.17-1.42,3.17-3.17   v-10.26l8.61,0.65c58.24,4.42,118.03,18.09,177.71,40.64L435.99,418.246z" fill="#f5c525"/><path d="M335.828,184.247c-16.113-28.393-44.872-49.387-85.472-62.393   c13.154-23.026,35.356-36.056,65.989-38.729l37.395-0.575l-35.881-15.084c-10.394-2.987-21.526-4.501-33.089-4.501   c-35.524,0-64.146,14.077-67.259,15.665l-0.147,0.083C195.02,66.22,173.13,59.886,152.301,59.886   c-16.594,0-32.319,3.958-46.739,11.765L81.92,84.449l26.793,2.21c17.078,1.408,42.747,9.978,68.065,42.803   c0,0-0.708-0.016-1.208-0.016c-7.397,0-45.45,1.374-68.137,28.498c-11.866,14.19-17.59,33.186-17.012,56.461l0.574,23.093   c0,0,20.527-26.866,24.217-30.632c20.343-20.751,46.453-31.72,75.506-31.719c0.287,0.208,28.733,21.433,34.521,79.68l2.645,26.614   l12.404-23.695c13.775-26.314,25.384-63.326,2.441-90.22c2.096,0.299,51.676,7.582,82.984,29.922l25.276,21.603   C350.99,219.051,336.404,185.266,335.828,184.247z" fill="#3e81c8"/><path d="M223.509,371.46c-6.2-6.248-11.74-13.021-16.466-20.132c-4.883-7.348-13.904-28.42-17.172-38.421   c-5.065-15.499-3.561-50.787-1.684-67.583c3.051-27.296,16.985-53.647,16.985-53.647l-2.348-3.294   c-3.882-5.447-7.332-9.027-9.544-11.071l-2.384-2.204l-13.638,0.813c0,0-12.984,11.415-20.81,23.272   c-5.933,8.99-18.107,30.645-20.874,37.693c-5.138,13.055-8.482,26.576-9.94,40.188l-0.855,16.896   c0.104,19.212,3.901,38.98,11.286,58.755l15.17,32.371h85.804L223.509,371.46z" fill="#f8a805"/><g><path d="M418.989,302.928c-1.178,0-2.374-0.261-3.504-0.813c-11.39-5.561-23.857-5.935-35.39-1.121    c-1.413,1.214-3.245,1.932-5.214,1.932h-0.773c-1.969,0-3.801-0.718-5.214-1.932c-11.533-4.814-24.001-4.44-35.39,1.121    c-3.969,1.938-8.761,0.291-10.698-3.679c-1.938-3.97-0.292-8.76,3.679-10.699c15.448-7.542,32.339-8.124,48.01-1.743    c15.671-6.38,32.563-5.799,48.01,1.743c3.971,1.939,5.617,6.729,3.679,10.699C424.797,301.276,421.95,302.928,418.989,302.928z"/><path d="M109.989,38.224c-1.178,0-2.374-0.261-3.504-0.813c-11.39-5.561-23.856-5.935-35.391-1.121    c-1.412,1.214-3.244,1.932-5.213,1.932h-0.773c-1.969,0-3.801-0.718-5.213-1.932c-11.534-4.814-24.001-4.44-35.391,1.121    c-3.968,1.937-8.76,0.291-10.698-3.679s-0.292-8.76,3.679-10.699c15.447-7.542,32.339-8.123,48.01-1.743    c15.672-6.38,32.563-5.799,48.01,1.743c3.971,1.939,5.617,6.729,3.679,10.699C115.797,36.573,112.95,38.224,109.989,38.224z"/><path d="M109.5,201.266c-4.32,4.41-8,8.82-11.08,12.94c-0.53-21.3,4.53-38.43,15.15-51.13c20.4-24.39,55.23-25.63,62-25.63    c0.54,0,0.85,0.01,0.9,0.01c3.11,0.12,5.98-1.57,7.4-4.33s1.12-6.09-0.77-8.55c-26.45-34.31-53.72-44.24-73.73-45.89    c10.64-5.76,25.07-10.8,42.93-10.8c19.44,0,40.02,5.99,61.16,17.81c2.36,1.32,5.23,1.35,7.63,0.09    c0.28-0.14,28.62-14.82,63.68-14.82c10.85,0,21.17,1.4,30.88,4.19c-25.22,2.2-54.73,12.08-72.24,42.73    c-1.2,2.09-1.38,4.61-0.51,6.86c0.87,2.25,2.72,3.99,5.01,4.72c38.63,12.38,65.87,32.14,80.96,58.73    c0.52,0.92,1.02,1.83,1.49,2.74c-32.92-23.49-83.63-30.92-86.5-31.33c-3.29-0.46-6.53,1.16-8.13,4.07    c-1.6,2.92-1.23,6.52,0.93,9.05c20.49,24.03,8.24,58.96-3.46,81.31c-6.13-61.7-36.34-84.32-37.79-85.37    c-1.37-0.99-3.01-1.52-4.69-1.52C159.46,167.146,131.38,178.946,109.5,201.266z M155.99,377.096c-2.03-3.73-3.91-7.45-5.67-11.17    h21.67c4.42,0,8-3.58,8-8c0-0.75-0.1-1.48-0.3-2.17c-0.23-0.84-0.6-1.62-1.07-2.32c-1.44-2.12-3.87-3.51-6.63-3.51h-28.43    c-7.08-18.96-10.68-37.65-10.78-56h21.21c4.42,0,8-3.58,8-8s-3.58-8-8-8h-20.4c1.38-12.89,4.51-25.61,9.43-38.11    c2.85-7.26,6.12-13.9,9.52-19.89h13.45c4.42,0,8-3.58,8-8s-3.58-8-8-8h-3.09c7.91-10.78,15.02-17.74,17.79-20.29    c2.36-0.22,4.74-0.39,7.16-0.45c1.85,1.71,4.94,4.9,8.46,9.84c-0.01,0.03-0.03,0.05-0.04,0.08c-0.52,1.02-10.76,21.54-15.96,50.82    h-18.32c-4.41,0-8,3.58-8,8c0,4.42,3.59,8,8,8h16.15c-0.05,0.54-0.11,1.07-0.15,1.62c-1.61,18.91-0.19,36.78,4.14,53.38h-21.14    c-4.41,0-8,3.58-8,8s3.59,8,8,8h26.38c3.12,7.86,6.96,15.36,11.51,22.51c0.49,0.78,0.99,1.55,1.5,2.32    c5.01,7.54,10.84,14.68,17.45,21.34L155.99,377.096L155.99,377.096z M437.03,412.436c-0.5-1.54-1.65-2.91-3.53-3.64    c-69.26-27.12-138.28-42.41-205.62-45.5c-0.38-0.02-0.76,0-1.13,0.04c-2.33-2.47-4.55-4.99-6.63-7.58    c-0.62-0.77-1.23-1.54-1.82-2.32c-19.09-24.78-27.29-54.93-24.41-90.03c1.84-22.43,7.98-41.64,12.27-52.79    c6.81,15.54,12.6,38.13,12.09,69.72c-0.06,3.45,2.11,6.55,5.37,7.69c0.86,0.29,1.75,0.44,2.62,0.44c2.45,0,4.82-1.13,6.37-3.15    c2.07-2.72,45.42-60.4,26.33-106.55c28.88,6.7,72.52,22.1,81.55,48.46c1.26,3.67,4.98,5.92,8.82,5.31    c3.83-0.61,6.68-3.88,6.75-7.76c0.02-0.81,0.21-20.18-12.74-43.52c-10.95-19.74-33.73-46.18-80.55-63.58    c17.32-22.11,44.37-27.04,65.03-27.04c13.58,0,23.47,2.2,23.56,2.22c0.7,0.16,1.41,0.22,2.11,0.19c4.27-0.16,7.69-3.68,7.69-7.99    c0-2.79-1.43-5.24-3.59-6.67c-20.87-15.54-45.37-23.42-72.8-23.42c-31.39,0-57.52,10.37-67.18,14.76    c-22.29-11.84-44.24-17.84-65.29-17.84c-48.81,0-75.74,31.78-76.87,33.13c-2.37,2.87-2.48,7-0.23,9.96s6.21,3.99,9.61,2.48    c0.07-0.03,7.16-3.04,18.12-3.04c14.55,0,35.54,5.23,57.47,28.21c-16.47,2.37-41.74,9.42-59.11,30.19    c-17.38,20.79-22.82,50.12-16.15,87.19c0.62,3.48,3.47,6.13,6.98,6.53c3.51,0.39,6.88-1.58,8.26-4.83    c0.06-0.15,6.5-15.06,20.96-29.66c9.49-9.57,20.07-16.77,31.64-21.6c-8.14,10.48-17.43,24.87-24.57,42.8    c-9.3,23.35-13.01,47.85-11.02,72.82c1.25,15.65,4.76,31.47,10.5,47.37c0.27,0.77,0.55,1.55,0.84,2.32    c1.43,3.82,2.98,7.65,4.66,11.48c-81.1,10.81-127.38,37.11-129.4,38.27c-2.56,1.48-3.99,4.17-3.99,6.93    c0,1.36,0.34,2.73,1.07,3.99c1.48,2.57,4.17,4.01,6.93,4.01c1.36,0,2.74-0.35,4-1.08c0.15-0.08,5.03-2.86,14.24-6.92    c19.3-8.51,57.62-22.66,111.3-29.6c1.05-0.14,2.1-0.27,3.16-0.4c1.87,3.55,3.85,7.11,5.94,10.66h85.85c6.17,0,11.17-5,11.17-11.17    v-1.63c50.33,3.82,101.61,14.58,153.2,32.14c7.42,2.52,14.85,5.19,22.29,8h12.17c3.82,0,6.02-3.03,6.02-6.08    C437.34,413.706,437.24,413.056,437.03,412.436z"/></g></g><g transform="matrix(0.12652942538261414 0 0 0.12652942538261414 163 -27.999999752872213)" id="L1_19"><path d="M392.914,243.615 363.007,272.492 326.622,236.108 309.628,257.314 355.341,336.489    466.448,336.489z" fill="#f8a805"/><path d="M286.184,216.71 233.699,193.488 211.694,229.487 211.799,229.472 211.694,229.491    181.279,191.975 51.534,416.709 401.657,416.709z" fill="#a18671"/><path d="M129.619,232.694 86.966,277.44 59.158,241.082 4.084,336.489 97.839,336.489    143.734,256.998z" fill="#f8a805"/><path d="M96.697,176.069 59.165,241.081 87.008,277.494 129.611,232.695z" fill="#efefef"/><path d="M226.589,113.489 181.281,191.975 211.701,229.485 233.694,193.486 286.191,216.705z" fill="#efefef"/><path d="M356.695,198.581 326.626,236.109 363,272.484 392.869,243.656z" fill="#efefef"/><path d="M433.304,114.822c-3.127-14.679-16.293-25.333-31.304-25.333c-6.001,0-11.844,1.669-16.898,4.824   C379.41,81.055,366.416,72.489,352,72.489c-19.851,0-36,16.149-36,36c0,8.777,3.204,16,3.204,16h116.159L433.304,114.822z" fill="#3e81c8"/><path d="M166.304,99.822C163.177,85.143,150.011,74.489,135,74.489c-6.001,0-11.844,1.669-16.898,4.824   C112.41,66.055,99.416,57.489,85,57.489c-19.851,0-36,16.149-36,36c0,8.444,3.204,16,3.204,16h116.159L166.304,99.822z" fill="#3e81c8"/><g><path d="M472.69,331.479l-2.38-2.99l-107.37-134.92c-1.52-1.89-3.82-2.99-6.24-2.99c0,0,0,0-0.01,0c-2.42,0-4.72,1.11-6.24,3    l-39.74,49.6l-77.19-133.69c-1.43-2.48-4.07-4-6.93-4c-2.85,0-5.5,1.52-6.92,4l-75.96,131.55l-40.1-68.99    c-1.43-2.46-4.06-3.98-6.91-3.98c-0.01,0-0.01,0-0.01,0c-2.86,0.01-5.49,1.53-6.92,4l-88.7,153.63c-0.51,0.89-0.83,1.83-0.97,2.79    H0v16h83.99l-35.22,61c-0.59,1.02-0.91,2.12-1.01,3.22h-0.01v0.06c-0.04,0.52-0.06,1.04,0,1.55v14.39h357.68v-14.29    c0.07-0.56,0.05-1.12,0-1.69v-0.02c-0.11-1.1-0.42-2.2-1.01-3.22l-35.22-61H474C474,344.489,474.95,333.749,472.69,331.479z     M356.7,211.369l25.36,31.6l-18.96,18.3l-25.75-25.75L356.7,211.369z M226.59,129.489l40.41,69.98l-30.07-13.3    c-3.66-1.62-7.97-0.27-10.06,3.15l-16.09,26.33l-19.82-24.44L226.59,129.489z M96.72,192.029l22.96,39.5l-32.01,33.66    l-18.91-24.73L96.72,192.029z M17.94,328.489l42.15-73.02l20.56,26.88c1.42,1.86,3.59,3,5.92,3.13c0.15,0.01,0.29,0.01,0.43,0.01    c2.19,0,4.29-0.89,5.8-2.49l35.26-37.06l6.43,11.07l-41.27,71.48L17.94,328.489L17.94,328.489z M127.12,408.709H65.39l37.08-64.22    l9.23-16l70.69-122.44l23.09,28.48c1.53,1.88,3.82,2.96,6.22,2.96c0.17,0,0.35-0.01,0.53-0.02c2.59-0.17,4.94-1.59,6.29-3.81    l18.35-30.02l9.83,4.35v26.25c0,8.96-7.29,16.25-16.26,16.25h-24.49c-17.78,0-32.25,14.47-32.25,32.25v0.5    c0,17.78,14.47,32.25,32.25,32.25h66.49c7.86,0,14.42,5.59,15.93,13c0.22,1.05,0.33,2.14,0.33,3.25v14.5    c0,8.96-7.29,16.25-16.26,16.25H157.95c-17.78,0-32.25,14.47-32.25,32.25v4.5C125.7,402.529,126.2,405.709,127.12,408.709z     M387.8,408.709H144.75c-1.92-2.67-3.05-5.94-3.05-9.47v-4.5c0-8.96,7.29-16.25,16.25-16.25h114.49    c17.79,0,32.26-14.47,32.26-32.25v-14.5c0-1.1-0.06-2.18-0.17-3.25c-1.63-16.26-15.4-29-32.09-29h-66.49    c-8.96,0-16.25-7.29-16.25-16.25v-0.5c0-8.96,7.29-16.25,16.25-16.25h24.49c17.79,0,32.26-14.47,32.26-32.25v-19.18l17.86,7.91    l60.92,105.52l9.24,16L387.8,408.709z M359.96,328.489l-40.67-70.44l7.99-9.97l30.07,30.07c1.56,1.56,3.6,2.34,5.65,2.34    c2.01,0,4.01-0.75,5.56-2.25l23.56-22.74l57.79,72.99H359.96z"/><path d="M402,81.489c-4.65,0-9.23,0.8-13.54,2.35c-8.09-11.96-21.66-19.35-36.46-19.35c-24.26,0-44,19.74-44,44    c0,6.87,1.55,13.45,4.59,19.57c1.35,2.71,4.13,4.43,7.16,4.43h114.11c4.14,0,7.6-3.16,7.97-7.28c0.12-1.26,0.17-2.51,0.17-3.72    C442,99.429,424.06,81.489,402,81.489z M325.16,116.489c-0.77-2.57-1.16-5.25-1.16-8c0-15.44,12.56-28,28-28    c11.22,0,21.32,6.66,25.75,16.98c0.92,2.14,2.73,3.78,4.96,4.48c2.23,0.69,4.65,0.38,6.63-0.85c3.78-2.36,8.16-3.61,12.66-3.61    c11.52,0,21.17,8.16,23.48,19H325.16z"/><path d="M135,66.489c-4.65,0-9.23,0.8-13.54,2.35c-8.09-11.96-21.66-19.35-36.46-19.35c-24.26,0-44,19.74-44,44    c0,6.87,1.55,13.45,4.59,19.57c1.35,2.71,4.13,4.43,7.16,4.43h114.11c4.14,0,7.59-3.15,7.97-7.27c0.11-1.26,0.17-2.52,0.17-3.73    C175,84.429,157.06,66.489,135,66.489z M58.16,101.489c-0.77-2.57-1.16-5.25-1.16-8c0-15.44,12.56-28,28-28    c11.22,0,21.32,6.66,25.75,16.98c0.92,2.14,2.74,3.78,4.96,4.48c2.23,0.69,4.65,0.38,6.63-0.85c3.78-2.36,8.16-3.61,12.66-3.61    c11.52,0,21.17,8.16,23.48,19H58.16z"/></g></g><g transform="matrix(0.049313195049762726 0 0 0.049313195049762726 76.24972422420979 164.24972422420979)" id="L1_20"><path d="M428.003,218l-44.23-37.856l23.464-53.292l-56.312-14.833l-1.978-58.198l-57.183,10.964   l-27.038-51.563l-46.729,34.781L171.274,13.22l-27.037,51.573L87.052,53.82l-1.981,58.193L28.763,126.85l23.464,53.292L7.997,218   l44.231,37.857l-23.464,53.292l56.311,14.833l1.978,58.198l57.093-10.956c0.065-0.012,0.104-0.016,0.09-0.009l27.039,51.564   l46.719-34.782l46.733,34.781l27.035-51.572l57.186,10.973l1.98-58.194l56.309-14.836l-23.464-53.292L428.003,218z M358,218   c0,77.196-62.804,140-140,140S78,295.196,78,218S140.804,78,218,78S358,140.803,358,218z" fill="#f5c525"/><path d="M218,78c-77.196,0-140,62.804-140,140s62.804,140,140,140s140-62.804,140-140S295.196,78,218,78z" fill="#f8a805"/><g><path d="M218,70c-81.61,0-148,66.39-148,148s66.39,148,148,148s148-66.39,148-148S299.61,70,218,70z M218,350    c-72.79,0-132-59.21-132-132S145.21,86,218,86c72.78,0,132,59.21,132,132S290.78,350,218,350z"/><path d="M433.2,211.92l-39.71-33.99l21.07-47.85c0.94-2.14,0.9-4.59-0.12-6.7c-1.01-2.11-2.9-3.66-5.16-4.26l-50.56-13.33    l-1.78-52.25c-0.08-2.33-1.18-4.52-3.01-5.98c-1.82-1.46-4.2-2.04-6.49-1.6l-51.35,9.85l-24.28-46.3    c-1.09-2.08-3.03-3.57-5.31-4.09s-4.68-0.01-6.56,1.38L218,38.03L176.05,6.8c-1.88-1.39-4.27-1.9-6.55-1.38s-4.22,2.01-5.31,4.09    l-24.28,46.3l-51.35-9.85c-2.3-0.44-4.67,0.14-6.5,1.6c-1.82,1.46-2.92,3.65-3,5.98l-1.78,52.25l-50.56,13.33    c-2.26,0.6-4.15,2.15-5.17,4.26c-1.01,2.11-1.05,4.56-0.11,6.7l21.07,47.85L2.8,211.92C1.02,213.44,0,215.66,0,218    s1.02,4.56,2.8,6.08l39.71,33.99l-21.07,47.85c-0.95,2.14-0.9,4.59,0.11,6.7c1.02,2.11,2.91,3.66,5.17,4.26l50.56,13.33    l1.78,52.25c0.08,2.33,1.17,4.52,3,5.98c1.83,1.46,4.21,2.04,6.5,1.6l51.35-9.85l24.28,46.3c1.09,2.08,3.03,3.57,5.31,4.09    s4.67,0.01,6.55-1.38L218,397.97l41.94,31.23c1.4,1.03,3.08,1.58,4.78,1.58c0.59,0,1.19-0.07,1.78-0.2    c2.28-0.52,4.22-2.01,5.31-4.09l24.28-46.3l51.34,9.85c2.3,0.44,4.68-0.14,6.5-1.6c1.83-1.46,2.93-3.65,3.01-5.98l1.78-52.25    l50.55-13.33c2.27-0.6,4.16-2.15,5.17-4.26c1.02-2.11,1.06-4.56,0.12-6.7l-21.07-47.85l39.71-33.99c1.78-1.52,2.8-3.74,2.8-6.08    S434.98,213.44,433.2,211.92z M378.57,249.78c-2.68,2.29-3.54,6.07-2.12,9.3l19.69,44.72l-47.25,12.45    c-3.42,0.9-5.84,3.93-5.96,7.46l-1.66,48.85l-48-9.21c-3.46-0.66-6.95,1.02-8.59,4.15l-22.69,43.27l-39.22-29.19    c-2.83-2.11-6.71-2.11-9.55,0l-39.21,29.19l-22.69-43.27c-1.4-2.67-4.15-4.29-7.08-4.29c-0.5,0-1.01,0.05-1.51,0.14l-48,9.21    l-1.66-48.85c-0.12-3.53-2.54-6.56-5.96-7.46L39.86,303.8l19.69-44.72c1.42-3.23,0.56-7.01-2.12-9.3L20.3,218l37.13-31.78    c2.68-2.29,3.54-6.07,2.12-9.3L39.86,132.2l47.25-12.45c3.42-0.9,5.84-3.93,5.96-7.46l1.66-48.85l48,9.21    c3.46,0.66,6.95-1.02,8.59-4.15l22.69-43.27l39.21,29.19c2.84,2.11,6.72,2.11,9.55,0l39.22-29.19l22.69,43.27    c1.64,3.13,5.13,4.81,8.59,4.15l48-9.21l1.66,48.85c0.12,3.53,2.54,6.56,5.96,7.46l47.25,12.45l-19.69,44.72    c-1.42,3.23-0.56,7.01,2.12,9.3L415.7,218L378.57,249.78z"/></g></g><g transform="matrix(0.049313195049762726 0 0 0.049313195049762726 230.24972422420979 136.24972422420979)"><path d="M428.003,218l-44.23-37.856l23.464-53.292l-56.312-14.833l-1.978-58.198l-57.183,10.964   l-27.038-51.563l-46.729,34.781L171.274,13.22l-27.037,51.573L87.052,53.82l-1.981,58.193L28.763,126.85l23.464,53.292L7.997,218   l44.231,37.857l-23.464,53.292l56.311,14.833l1.978,58.198l57.093-10.956c0.065-0.012,0.104-0.016,0.09-0.009l27.039,51.564   l46.719-34.782l46.733,34.781l27.035-51.572l57.186,10.973l1.98-58.194l56.309-14.836l-23.464-53.292L428.003,218z M358,218   c0,77.196-62.804,140-140,140S78,295.196,78,218S140.804,78,218,78S358,140.803,358,218z" fill="#f5c525"/><path d="M218,78c-77.196,0-140,62.804-140,140s62.804,140,140,140s140-62.804,140-140S295.196,78,218,78z" fill="#f8a805"/><g><path d="M218,70c-81.61,0-148,66.39-148,148s66.39,148,148,148s148-66.39,148-148S299.61,70,218,70z M218,350    c-72.79,0-132-59.21-132-132S145.21,86,218,86c72.78,0,132,59.21,132,132S290.78,350,218,350z"/><path d="M433.2,211.92l-39.71-33.99l21.07-47.85c0.94-2.14,0.9-4.59-0.12-6.7c-1.01-2.11-2.9-3.66-5.16-4.26l-50.56-13.33    l-1.78-52.25c-0.08-2.33-1.18-4.52-3.01-5.98c-1.82-1.46-4.2-2.04-6.49-1.6l-51.35,9.85l-24.28-46.3    c-1.09-2.08-3.03-3.57-5.31-4.09s-4.68-0.01-6.56,1.38L218,38.03L176.05,6.8c-1.88-1.39-4.27-1.9-6.55-1.38s-4.22,2.01-5.31,4.09    l-24.28,46.3l-51.35-9.85c-2.3-0.44-4.67,0.14-6.5,1.6c-1.82,1.46-2.92,3.65-3,5.98l-1.78,52.25l-50.56,13.33    c-2.26,0.6-4.15,2.15-5.17,4.26c-1.01,2.11-1.05,4.56-0.11,6.7l21.07,47.85L2.8,211.92C1.02,213.44,0,215.66,0,218    s1.02,4.56,2.8,6.08l39.71,33.99l-21.07,47.85c-0.95,2.14-0.9,4.59,0.11,6.7c1.02,2.11,2.91,3.66,5.17,4.26l50.56,13.33    l1.78,52.25c0.08,2.33,1.17,4.52,3,5.98c1.83,1.46,4.21,2.04,6.5,1.6l51.35-9.85l24.28,46.3c1.09,2.08,3.03,3.57,5.31,4.09    s4.67,0.01,6.55-1.38L218,397.97l41.94,31.23c1.4,1.03,3.08,1.58,4.78,1.58c0.59,0,1.19-0.07,1.78-0.2    c2.28-0.52,4.22-2.01,5.31-4.09l24.28-46.3l51.34,9.85c2.3,0.44,4.68-0.14,6.5-1.6c1.83-1.46,2.93-3.65,3.01-5.98l1.78-52.25    l50.55-13.33c2.27-0.6,4.16-2.15,5.17-4.26c1.02-2.11,1.06-4.56,0.12-6.7l-21.07-47.85l39.71-33.99c1.78-1.52,2.8-3.74,2.8-6.08    S434.98,213.44,433.2,211.92z M378.57,249.78c-2.68,2.29-3.54,6.07-2.12,9.3l19.69,44.72l-47.25,12.45    c-3.42,0.9-5.84,3.93-5.96,7.46l-1.66,48.85l-48-9.21c-3.46-0.66-6.95,1.02-8.59,4.15l-22.69,43.27l-39.22-29.19    c-2.83-2.11-6.71-2.11-9.55,0l-39.21,29.19l-22.69-43.27c-1.4-2.67-4.15-4.29-7.08-4.29c-0.5,0-1.01,0.05-1.51,0.14l-48,9.21    l-1.66-48.85c-0.12-3.53-2.54-6.56-5.96-7.46L39.86,303.8l19.69-44.72c1.42-3.23,0.56-7.01-2.12-9.3L20.3,218l37.13-31.78    c2.68-2.29,3.54-6.07,2.12-9.3L39.86,132.2l47.25-12.45c3.42-0.9,5.84-3.93,5.96-7.46l1.66-48.85l48,9.21    c3.46,0.66,6.95-1.02,8.59-4.15l22.69-43.27l39.21,29.19c2.84,2.11,6.72,2.11,9.55,0l39.22-29.19l22.69,43.27    c1.64,3.13,5.13,4.81,8.59,4.15l48-9.21l1.66,48.85c0.12,3.53,2.54,6.56,5.96,7.46l47.25,12.45l-19.69,44.72    c-1.42,3.23-0.56,7.01,2.12,9.3L415.7,218L378.57,249.78z"/></g></g><g transform="matrix(0.2387293577194214 0 0 0.2387293577194214 203.94310615211725 204.91821087787866)" id="L1_21"><path d="M214.063,284.229 127.461,284.229 288.454,425.225z" fill="#f8a805"/><path d="M97.339,233.229c-22.498,0-44.133,8.238-60.92,23.195l-23.246,20.697   c-3.577,3.181-5.449,7.74-5.137,12.508c0.311,4.773,2.747,9.051,6.669,11.728L28.9,311.09   c15.318,10.486,33.219,16.029,51.769,16.029h0.335l95.023-0.361l-48.568-42.529l86.604,0.003l22.321,42.305l82.073-0.314   l71.005-92.995H97.339V233.229z" fill="#ecf0f1"/><path d="M297.008,233.229 388.998,233.229 388.998,108.232z" fill="#f8a805"/><path d="M292.978,151.84c-0.204-20.529-16.451-36.61-36.989-36.61h-0.135   c-8.31,0.025-16.155,2.75-22.683,7.878c-7.185-16.328-23.354-26.878-41.192-26.878c-19.664,0-37.374,13.135-43.075,31.937   c-3.959-1.09-8.068-1.241-12.291-0.39c-11.361,2.359-20.026,12.51-20.604,24.136l-0.01,0.488c-0.071,3.054,1.069,5.959,3.269,8.25   c2.255,2.307,5.267,3.578,8.481,3.578h153.48c6.416,0,11.687-5.213,11.75-11.7L292.978,151.84z" fill="#3e81c8"/><path d="M203.673,87.346c-2.399-18.61-17.823-32.117-36.674-32.117h-0.125   c-8.316,0.025-16.165,2.75-22.693,7.878c-7.185-16.328-23.354-26.878-41.192-26.878c-19.664,0-37.374,13.135-43.076,31.937   c-3.959-1.09-8.067-1.242-12.291-0.39c-11.369,2.361-20.031,12.516-20.595,24.162l-0.012,0.246   c-0.131,3.133,1.009,6.121,3.262,8.467c2.255,2.307,5.267,3.578,8.481,3.578h127.67l1.938-1.203   c7.164-4.446,15.329-6.797,23.611-6.797c0.911,0,1.913,0.038,3.249,0.124l9.687,0.621L203.673,87.346z" fill="#3e81c8"/><g><path d="M453.458,249.122h-8c-4.419,0-8,3.582-8,8c0,4.418,3.581,8,8,8h8c4.418,0,8-3.582,8-8    C461.458,252.704,457.877,249.122,453.458,249.122z"/><path d="M405.458,265.122h8c4.418,0,8-3.582,8-8c0-4.419-3.582-8-8-8h-8c-4.419,0-8,3.582-8,8    C397.458,261.541,401.04,265.122,405.458,265.122z"/><path d="M373.458,319.122h-8c-4.419,0-8,3.581-8,8c0,4.418,3.581,8,8,8h8c4.418,0,8-3.582,8-8S377.877,319.122,373.458,319.122z"/><path d="M38.758,96.229c-1.42,0-2.34-0.74-2.76-1.17c-0.48-0.5-1.04-1.34-0.99-2.54l0.01-0.21c0.39-8.05,6.38-15.07,14.23-16.7    c1.24-0.25,2.5-0.38,3.74-0.38c1.63,0,3.24,0.22,4.8,0.65c4.18,1.16,8.53-1.23,9.79-5.39c4.68-15.46,19.24-26.26,35.41-26.26    c14.66,0,27.96,8.67,33.87,22.1c1,2.26,2.98,3.93,5.38,4.53c2.39,0.6,4.93,0.06,6.88-1.46c5.12-4.02,11.27-6.15,17.78-6.17h0.1    c14.89,0,26.89,10.79,28.74,25.14c-1.25-0.08-2.5-0.14-3.76-0.14c-10.03,0-19.63,2.91-27.83,8H38.758z M284.978,152.529    c-0.02,2.04-1.7,3.7-3.75,3.7h-153.48c-1.42,0-2.34-0.74-2.76-1.17c-0.48-0.5-1.04-1.34-0.99-2.54v-0.21    c0.4-8.05,6.39-15.07,14.24-16.7c1.24-0.25,2.5-0.38,3.74-0.38c1.63,0,3.24,0.22,4.8,0.65c4.18,1.16,8.53-1.23,9.79-5.39    c4.68-15.46,19.24-26.26,35.41-26.26c14.66,0,27.96,8.67,33.87,22.1c1,2.26,2.98,3.93,5.38,4.53c2.39,0.6,4.93,0.06,6.88-1.46    c5.12-4.02,11.26-6.15,17.77-6.17h0.11c16.09,0,28.83,12.6,28.99,28.69L284.978,152.529L284.978,152.529z M255.988,107.229h-0.16    c-6.96,0.02-13.65,1.6-19.74,4.61c-5.92-8.88-14.36-15.69-24.1-19.67v-0.41c-0.25-24.97-20.02-44.53-44.99-44.53h-0.16    c-6.96,0.02-13.65,1.6-19.74,4.61c-9.71-14.58-26.2-23.61-44.11-23.61c-20.79,0-39.73,12.47-48.24,31.05    c-2.91-0.15-5.85,0.07-8.73,0.67c-15.13,3.12-26.23,16.11-26.98,31.56l-0.02,0.39c-0.21,5.33,1.73,10.39,5.45,14.25    s8.93,6.08,14.29,6.08h108.9c-1.47,2.23-2.79,4.58-3.92,7.05c-2.91-0.15-5.86,0.07-8.74,0.67c-15.12,3.12-26.22,16.11-26.98,31.56    l-0.01,0.39c-0.21,5.33,1.73,10.39,5.45,14.25s8.92,6.08,14.29,6.08h153.48c10.78,0,19.64-8.76,19.75-19.54v-0.93    C300.718,126.789,280.958,107.229,255.988,107.229z"/><path d="M396.998,230.599v-122.37c0-3.46-2.22-6.52-5.5-7.6c-3.29-1.08-6.89,0.07-8.94,2.86l-89.6,121.74H97.338    c-24.46,0-47.98,8.96-66.24,25.22l-23.25,20.71c-5.42,4.82-8.26,11.73-7.8,18.97c0.46,7.23,4.16,13.73,10.14,17.83l14.19,9.73    c16.65,11.4,36.11,17.43,56.29,17.43l92.36-0.34l107.85,94.45l2.31,2.02c1.5,1.32,3.39,1.98,5.27,1.98c0.01,0,0.01,0,0.02,0    c2.96,0,5.55-1.61,6.92-4c0.69-1.17,1.08-2.54,1.08-4c0-1.54-0.44-2.99-1.2-4.21l-45.65-86.53l68.86-0.26    c2.48-0.01,4.82-1.17,6.33-3.15l71-93C397.458,235.929,397.878,233.109,396.998,230.599z M261.208,390.729l-112.47-98.5h60.5    L261.208,390.729z M314.488,318.239l-73.29,0.28l-20.06-38.02c-1.39-2.63-4.11-4.27-7.08-4.27h-86.6c-3.33,0-6.32,2.07-7.49,5.18    c-1.17,3.12-0.29,6.64,2.22,8.84l32.65,28.59l-73.85,0.28h-0.32c-16.94,0-33.27-5.06-47.25-14.63l-14.19-9.73    c-1.89-1.29-3.06-3.35-3.21-5.65c-0.15-2.29,0.75-4.48,2.47-6.01l23.25-20.7c15.32-13.65,35.07-21.17,55.6-21.17h275.95    L314.488,318.239z M380.998,225.229h-68.17l68.17-92.63V225.229z"/><path d="M73.458,272.229v11c0,4.42-3.58,8-8,8s-8-3.58-8-8v-11c0-4.42,3.58-8,8-8S73.458,267.809,73.458,272.229z"/><path d="M100.458,272.229v11c0,4.42-3.58,8-8,8s-8-3.58-8-8v-11c0-4.42,3.58-8,8-8S100.458,267.809,100.458,272.229z"/><path d="M255.458,272.229v11c0,4.42-3.58,8-8,8s-8-3.58-8-8v-11c0-4.42,3.58-8,8-8    C251.878,264.229,255.458,267.809,255.458,272.229z"/><path d="M282.458,272.229v11c0,4.42-3.58,8-8,8s-8-3.58-8-8v-11c0-4.42,3.58-8,8-8    C278.878,264.229,282.458,267.809,282.458,272.229z"/><path d="M308.998,272.229v11c0,4.42-3.58,8-8,8c-4.41,0-8-3.58-8-8v-11c0-4.42,3.59-8,8-8    C305.418,264.229,308.998,267.809,308.998,272.229z"/><path d="M433.458,284.122h-8c-4.419,0-8,3.581-8,8c0,4.418,3.581,8,8,8h8c4.418,0,8-3.582,8-8S437.877,284.122,433.458,284.122z"/><path d="M401.458,292.122c0-4.419-3.582-8-8-8h-8c-4.419,0-8,3.581-8,8c0,4.418,3.581,8,8,8h8    C397.877,300.122,401.458,296.541,401.458,292.122z"/><path d="M413.458,319.122h-8c-4.419,0-8,3.581-8,8c0,4.418,3.581,8,8,8h8c4.418,0,8-3.582,8-8S417.877,319.122,413.458,319.122z"/></g></g><g transform="matrix(0.057874470949172974 0 0 0.057874470949172974 154.78413633001992 70.1092914044857)" id="L1_22"><path d="M165.893,415.666c-27.348-30.732-44.336-89.966-44.336-154.582c0-4.744,0.103-9.659,0.313-15.025   l0.282-9.672l-9.466,1.444L80.817,205.31l-5.225,9.295c-12.454,22.154-19.036,47.373-19.036,72.93   c0,63.57,40.489,120.239,100.752,141.014l28.916,9.968L165.893,415.666z" fill="#f8a805"/><path d="M344.596,233.379l-3.843-9.822l-38.479,28.993l-12.803-8.876l0.258,16.251   c0.008,0.384,0.017,0.77,0.017,1.159c0,64.616-16.989,123.849-44.337,154.582l-20.334,22.853l28.918-9.971   c60.264-20.778,100.753-77.447,100.753-141.014C354.746,268.812,351.331,250.592,344.596,233.379z" fill="#f8a805"/><path d="M288.754,234.173l-1.291-17.404L244.3,259.917l-32.205-46.005l-40.502,33.125l-34.047-34.048   l-14.453,14.454l-0.249,2.91c-0.855,10.02-1.289,20.359-1.289,30.73c0,46.51,8.619,90.328,24.27,123.383   c12.74,26.913,29.663,44.777,47.651,50.305l10.35,3.18v-0.209l9.521-1.844c19.721-3.819,38.23-22.085,52.12-51.432   c15.657-33.079,24.279-76.896,24.279-123.383C289.746,252.101,289.412,243.047,288.754,234.173z" fill="#f8a805"/><path d="M261.421,88.177c-15.53-38.733-50.914-65.68-92.344-70.323l-27.236-3.053l21.317,17.226   c17.919,14.479,34.039,40.624,44.225,71.729l1.768,5.398l5.68,0.109c3.936,0.076,6.948,1.534,9.839,2.932   c3.003,1.465,6.11,2.979,10.196,2.979c1.599,0,3.251-0.229,5.117-0.717c6.845-1.85,9.509-5.783,12.086-9.587   c1.699-2.509,3.456-5.103,6.393-7.078l5.366-3.611L261.421,88.177z" fill="#3e81c8"/><path d="M207.15,103.108c-8.363-25.246-20.274-46.7-34.448-62.043   c-11.315-12.248-23.174-19.435-34.292-20.783l-11.943-1.449l29.674,104.609l5.357,0.585c3.28,0.357,6.006,1.683,8.434,2.863   c3.151,1.52,6.127,2.954,10.174,2.954c1.649,0,3.32-0.234,5.083-0.711c6.862-1.831,9.536-5.777,12.118-9.59   c1.741-2.568,3.542-5.223,6.602-7.208l5.184-3.362L207.15,103.108z" fill="#3e81c8"/><path d="M126.535,19.064l-9.234,6.542c-9.348,6.622-16.287,18.962-20.068,35.685   c-4.538,20.089-4.116,45.294,1.188,70.971l1.25,6.053l6.172,0.318c3.67,0.189,6.549,1.58,9.326,2.922   c3.015,1.46,6.133,2.97,10.177,2.97c1.589,0,3.238-0.229,5.101-0.716c6.838-1.842,9.505-5.778,12.088-9.592   c1.961-2.889,3.99-5.876,7.851-7.932l5.699-3.033L126.535,19.064z" fill="#3e81c8"/><path d="M110.817,23.052L88.735,39.405c-33.521,24.824-50.679,65.841-44.778,107.042l0.917,6.4l6.45,0.446   c3.504,0.243,6.324,1.604,9.057,2.921c3.004,1.465,6.11,2.979,10.206,2.979c1.59,0,3.239-0.229,5.083-0.711   c6.85-1.828,9.519-5.768,12.111-9.593c1.815-2.681,3.693-5.452,7.065-7.49l4.857-2.937l-1.167-5.554   c-6.72-32.003-5.834-62.695,2.429-84.207L110.817,23.052z" fill="#3e81c8"/><path d="M409.196,56.904c-1.71-4.07-6.4-5.99-10.47-4.28l-100,42c-2.42,1.02-4.19,3.16-4.73,5.72l-26,123   c-0.13,0.59-0.18,1.17-0.17,1.75l-22.44,22.43l-26.74-38.2c-1.28-1.82-3.26-3.03-5.46-3.34c-2.21-0.31-4.44,0.33-6.16,1.73   l-15.15,12.4l-24.24-85.45c3.25,1.54,7.23,3.18,12.47,3.18c2.31,0,4.72-0.33,7.16-0.98c9.73-2.61,13.73-8.52,16.66-12.83   c2.3-3.4,3.57-5.27,7.55-6.35c1.11-0.3,2.1-0.44,3.02-0.44c2.13,0,3.85,0.78,6.7,2.16c3.46,1.68,7.77,3.77,13.68,3.77   c2.31,0,4.71-0.33,7.16-0.99c9.72-2.6,13.73-8.51,16.65-12.82c2.3-3.39,3.56-5.26,7.45-6.33c2.11-0.58,3.89-1.99,4.92-3.92   c1.04-1.92,1.24-4.19,0.56-6.27c-8.04-24.67-23.44-45.72-44.54-60.87c-20.82-14.94-45.29-22.84-70.77-22.84   c-7.91,0-15.82,0.78-23.61,2.33l-1.6-5.65c-1.21-4.25-5.63-6.71-9.88-5.51c-4.25,1.21-6.72,5.63-5.51,9.88l1.53,5.42   c-57.83,19.56-92.58,79.5-79.78,139.99c0.45,2.13,1.76,3.99,3.62,5.14s4.11,1.49,6.23,0.94c1.06-0.28,2.01-0.41,2.9-0.41   c2.13,0,3.85,0.78,6.7,2.16c3.47,1.68,7.78,3.77,13.68,3.77c2.31,0,4.72-0.33,7.16-0.99c9.72-2.6,13.73-8.51,16.65-12.82   c2.32-3.41,3.59-5.29,7.49-6.34c0.02,0,0.11-0.03,0.13-0.03c1.08-0.29,2.05-0.43,2.96-0.43c2.13,0,3.84,0.79,6.7,2.17   c3.46,1.68,7.77,3.77,13.67,3.77c2.31,0,4.72-0.33,7.16-0.99c9.72-2.6,13.73-8.51,16.66-12.83c0.78-1.16,1.45-2.14,2.15-2.97   l27.06,95.42l-6.25,5.11l-28.93-28.93c-3.12-3.12-8.19-3.12-11.31,0l-19.14,19.13l-25.94-26.48c-1.69-1.73-4.08-2.6-6.48-2.37   c-2.41,0.24-4.58,1.54-5.91,3.56c-16.92,25.66-25.86,55.53-25.86,86.36c0,41.76,16.2,81.08,45.63,110.71   c29.4,29.59,68.55,46.06,110.25,46.38c0.4,0.01,2.03,0.01,2.44,0c41.69-0.32,80.84-16.79,110.23-46.38   c29.43-29.63,45.64-68.95,45.64-110.71c0-23.49-5.07-46.09-15.07-67.18c-1.03-2.17-2.98-3.77-5.31-4.34   c-2.34-0.58-4.81-0.07-6.73,1.38l-30.92,23.31l-9.52-16.68l-0.01-0.01l-4.36-7.63c-0.95-1.68-2.47-2.92-4.25-3.56l22.21-105.07   l96.13-40.38C408.996,65.664,410.906,60.974,409.196,56.904z M90.706,134.554c-4.83,2.92-7.47,6.78-9.55,9.85   c-1.149,1.696-2.291,3.509-3.971,4.735c-1.955,1.427-4.578,2.144-6.99,2.048c-2.251-0.09-4.325-1.206-6.308-2.163   c-3.13-1.51-6.95-3.36-12.01-3.71c-5.59-39.03,11.21-76.96,41.62-99.48C84.876,68.274,83.426,99.884,90.706,134.554z    M253.996,91.154c-4.22,2.84-6.62,6.38-8.55,9.23c-2.31,3.41-3.59,5.28-7.55,6.35c-1.11,0.29-2.1,0.44-3.03,0.44   c-2.12,0-3.84-0.78-6.69-2.17c-3.37-1.63-7.54-3.63-13.19-3.74c-11.03-33.68-28.1-60.35-46.8-75.46   C206.556,30.104,239.526,55.064,253.996,91.154z M135.908,129.718c-1.962,2.73-4.12,5.39-7.289,6.312   c-3.664,1.066-6.706-0.098-9.963-1.676c-3.21-1.55-7.16-3.44-12.4-3.71c-5.09-24.64-5.55-48.42-1.22-67.59   c3.36-14.86,9.24-25.5,16.89-30.92c0,0,24.696,87.077,24.7,87.09c-0.08-0.303-7.121,5.722-7.691,6.399   C137.902,126.849,136.932,128.293,135.908,129.718z M137.446,28.224c9.15,1.11,19.3,7.36,29.38,18.27   c13.34,14.44,24.82,35.25,32.73,59.13c-4.41,2.86-6.89,6.51-8.87,9.43c-2.31,3.41-3.59,5.29-7.56,6.35   c-1.11,0.3-2.1,0.44-3.02,0.44c-2.13,0-3.84-0.78-6.7-2.16c-2.92-1.42-6.46-3.11-11.04-3.61L137.446,28.224z M64.556,287.534   c0-24.34,6.2-48,18.01-69.01l24.41,24.91c1.5,1.53,3.54,2.4,5.67,2.41h0.05c0.4,0,0.79-0.04,1.18-0.1   c-0.2,5.09-0.32,10.21-0.32,15.34c0,69.15,18.49,128.58,46.36,159.9C104.536,401.894,64.556,349.154,64.556,287.534z    M211.826,428.044v-144.04c0-4.42-3.59-8-8-8c-4.42,0-8,3.58-8,8v143.12c-15.72-4.83-30.93-21.07-42.77-46.08   c-15.16-32.02-23.5-74.63-23.5-119.96c0-10.12,0.42-20.21,1.26-30.05l6.73-6.73l28.39,28.39c2.9,2.91,7.54,3.14,10.72,0.54   l33.83-27.67l27.26,38.94c1.36,1.94,3.5,3.18,5.86,3.39c0.29,0.02,0.59,0.03,0.88,0.03c2.04-0.05,4.01-0.88,5.47-2.35l30.82-30.81   c0.64,8.63,0.97,17.46,0.97,26.32c0,45.33-8.35,87.93-23.51,119.96C245.486,407.984,228.816,424.754,211.826,428.044z    M297.746,261.084c0-0.66-0.02-1.31-0.03-1.96c0.88,0.61,1.88,1.05,2.95,1.27c2.25,0.47,4.6-0.06,6.43-1.45l30.05-22.65   c6.37,16.28,9.6,33.48,9.6,51.24c0,61.62-39.99,114.36-95.36,133.45C279.256,389.664,297.746,330.234,297.746,261.084z"/></g><g transform="matrix(0.06651891022920609 0 0 0.06651891022920609 332.63191682100296 72.63191682100296)" id="L1_23"><rect x="227px" y="350px" width="47px" height="29px" fill="#f8a805"/><rect x="208px" y="379px" width="85px" height="45px" fill="#a18671"/><path d="M316.596,22.909L279.647,5.023l27.528,30.451c3.467,3.835,6.761,8.039,9.792,12.498   C334.722,74.047,344.5,109.571,344.5,148c0,38.074-9.923,87.382-27.225,135.282L313.404,294h33.961l2.313-3.983   C378.799,239.869,395.5,188.105,395.5,148C395.5,94.4,365.266,46.468,316.596,22.909z" fill="#3e81c8"/><path d="M275.673,12.851l-18.238-7.215l7.989,17.913c2.828,6.339,5.419,14.554,7.703,24.418   C279.171,74.043,282.5,109.569,282.5,148c0,38.585-3.455,88.524-9.479,137.014L271.904,294h41.406l1.943-5.199   C333.84,239.066,344.5,187.746,344.5,148C344.5,83.449,316.841,29.137,275.673,12.851z" fill="#f8a805"/><path d="M273.517,49.683C270.216,34.932,263,9.916,251.765,8.102L251.111,8h-1.299l-0.649,0.107   c-11.191,1.853-18.388,26.838-21.68,41.566c-5.793,25.9-8.983,60.819-8.983,98.327c0,39.187,3.548,89.85,9.732,138.999l0.881,7.001   h42.772l0.882-7.001C278.952,237.86,282.5,187.197,282.5,148C282.5,110.489,279.31,75.572,273.517,49.683z" fill="#3e81c8"/><path d="M235.576,23.549l7.989-17.913l-18.238,7.215C184.159,29.137,156.5,83.449,156.5,148   c0,39.745,10.66,91.064,29.247,140.8l1.943,5.2h41.406l-1.117-8.986c-6.024-48.49-9.479-98.429-9.479-137.014   c0-38.433,3.329-73.958,9.374-100.036C230.157,38.103,232.748,29.888,235.576,23.549z" fill="#f8a805"/><path d="M193.824,35.475L221.36,5.021L184.404,22.91C135.734,46.468,105.5,94.4,105.5,148   c0,40.104,16.702,91.868,45.822,142.017l2.313,3.983h33.961l-3.871-10.718C166.423,235.384,156.5,186.075,156.5,148   c0-38.429,9.778-73.953,27.536-100.033C187.064,43.512,190.357,39.309,193.824,35.475z" fill="#3e81c8"/><g><path d="M124.5,327h-8c-4.419,0-8,3.582-8,8c0,4.419,3.581,8,8,8h8c4.418,0,8-3.581,8-8C132.5,330.582,128.918,327,124.5,327z"/><path d="M76.5,343h8c4.418,0,8-3.581,8-8c0-4.418-3.582-8-8-8h-8c-4.419,0-8,3.582-8,8C68.5,339.419,72.081,343,76.5,343z"/><path d="M72.5,370c0-4.418-3.582-8-8-8h-8c-4.419,0-8,3.582-8,8s3.581,8,8,8h8C68.918,378,72.5,374.418,72.5,370z"/><path d="M104.5,362h-8c-4.419,0-8,3.582-8,8s3.581,8,8,8h8c4.418,0,8-3.582,8-8S108.918,362,104.5,362z"/><path d="M44.5,397h-8c-4.419,0-8,3.582-8,8s3.581,8,8,8h8c4.418,0,8-3.582,8-8S48.918,397,44.5,397z"/><path d="M84.5,397h-8c-4.419,0-8,3.582-8,8s3.581,8,8,8h8c4.418,0,8-3.582,8-8S88.918,397,84.5,397z"/><path d="M294.6,6c-13.92-3.91-28.71-6-44.1-6s-30.18,2.09-44.1,6C142.76,23.9,97.5,79.9,97.5,148    c0,42.71,17.96,97.42,49.29,150.09c0.02,0.03,0.04,0.06,0.06,0.09c0.02,0.04,0.05,0.09,0.07,0.13L200,381.34V424    c0,4.42,3.58,8,8,8h85c4.42,0,8-3.58,8-8v-42.66l53.08-83.03c0.02-0.04,0.05-0.09,0.07-0.13c0.02-0.03,0.04-0.06,0.06-0.09    C385.54,245.42,403.5,190.71,403.5,148C403.5,79.9,358.24,23.9,294.6,6z M336.5,148c0,39.01-10.44,89.03-28.74,138h-26.8    c6.08-48.94,9.54-98.77,9.54-138c0-39.01-3.4-75.18-9.58-101.84c-2.41-10.41-5.13-19.01-8.19-25.87    C309.84,34.97,336.5,85.83,336.5,148z M274.5,148c0,39.13-3.51,89.06-9.67,138h-28.66c-6.16-48.95-9.67-98.87-9.67-138    c0-36.94,3.12-71.23,8.79-96.58c6.35-28.4,13.61-35.16,15.18-35.42c0.01,0,0.01,0,0.02,0c1.61,0.26,8.86,7.01,15.22,35.43    C271.38,76.77,274.5,111.07,274.5,148z M228.27,20.29c-3.06,6.86-5.78,15.46-8.19,25.87c-6.18,26.66-9.58,62.83-9.58,101.84    c0,39.23,3.46,89.06,9.54,138h-26.8c-18.3-48.97-28.74-98.99-28.74-138C164.5,85.83,191.16,34.97,228.27,20.29z M113.5,148    c0-52.15,29.87-96.34,74.39-117.89c-3.68,4.07-7.18,8.52-10.47,13.36C158.77,70.86,148.5,107.99,148.5,148    c0,39.34,10.03,89.08,27.7,138h-17.96C129.77,236.97,113.5,186.88,113.5,148z M285,416h-69v-29h69V416z M235,371v-13h31v13H235z     M288.62,371H282v-21c0-4.42-3.58-8-8-8h-47c-4.42,0-8,3.58-8,8v21h-6.62l-44.11-69h164.46L288.62,371z M342.76,286H324.8    c17.67-48.92,27.7-98.66,27.7-138c0-40.01-10.27-77.14-28.92-104.53c-3.29-4.84-6.79-9.29-10.47-13.36    C357.63,51.66,387.5,95.85,387.5,148C387.5,186.88,371.23,236.97,342.76,286z"/></g></g></defs><g fi:class="KUsePattern"><pattern id="pattern_L1_9" width="350" height="350" patternUnits="userSpaceOnUse"><use xlink:href="#L1_9" x="-350" y="-350"/><use xlink:href="#L1_9" x="0" y="-350"/><use xlink:href="#L1_9" x="350" y="-350"/><use xlink:href="#L1_9" x="-350" y="0"/><use xlink:href="#L1_9" x="0" y="0"/><use xlink:href="#L1_9" x="350" y="0"/><use xlink:href="#L1_9" x="-350" y="350"/><use xlink:href="#L1_9" x="0" y="350"/><use xlink:href="#L1_9" x="350" y="350"/></pattern><rect x="0" y="0" width="100%" height="100%" fill="url(#pattern_L1_9)"/></g><g fi:class="KUsePattern"><pattern id="pattern_L1_10" width="350" height="350" patternUnits="userSpaceOnUse"><use xlink:href="#L1_10" x="-350" y="-350"/><use xlink:href="#L1_10" x="0" y="-350"/><use xlink:href="#L1_10" x="350" y="-350"/><use xlink:href="#L1_10" x="-350" y="0"/><use xlink:href="#L1_10" x="0" y="0"/><use xlink:href="#L1_10" x="350" y="0"/><use xlink:href="#L1_10" x="-350" y="350"/><use xlink:href="#L1_10" x="0" y="350"/><use xlink:href="#L1_10" x="350" y="350"/></pattern><rect x="0" y="0" width="100%" height="100%" fill="url(#pattern_L1_10)"/></g><g fi:class="KUsePattern"><pattern id="pattern_L1_11" width="350" height="350" patternUnits="userSpaceOnUse"><use xlink:href="#L1_11" x="-350" y="-350"/><use xlink:href="#L1_11" x="0" y="-350"/><use xlink:href="#L1_11" x="350" y="-350"/><use xlink:href="#L1_11" x="-350" y="0"/><use xlink:href="#L1_11" x="0" y="0"/><use xlink:href="#L1_11" x="350" y="0"/><use xlink:href="#L1_11" x="-350" y="350"/><use xlink:href="#L1_11" x="0" y="350"/><use xlink:href="#L1_11" x="350" y="350"/></pattern><rect x="0" y="0" width="100%" height="100%" fill="url(#pattern_L1_11)"/></g><g fi:class="KUsePattern"><pattern id="pattern_L1_12" width="350" height="350" patternUnits="userSpaceOnUse"><use xlink:href="#L1_12" x="-350" y="-350"/><use xlink:href="#L1_12" x="0" y="-350"/><use xlink:href="#L1_12" x="350" y="-350"/><use xlink:href="#L1_12" x="-350" y="0"/><use xlink:href="#L1_12" x="0" y="0"/><use xlink:href="#L1_12" x="350" y="0"/><use xlink:href="#L1_12" x="-350" y="350"/><use xlink:href="#L1_12" x="0" y="350"/><use xlink:href="#L1_12" x="350" y="350"/></pattern><rect x="0" y="0" width="100%" height="100%" fill="url(#pattern_L1_12)"/></g><g fi:class="KUsePattern"><pattern id="pattern_L1_13" width="350" height="350" patternUnits="userSpaceOnUse"><use xlink:href="#L1_13" x="-350" y="-350"/><use xlink:href="#L1_13" x="0" y="-350"/><use xlink:href="#L1_13" x="350" y="-350"/><use xlink:href="#L1_13" x="-350" y="0"/><use xlink:href="#L1_13" x="0" y="0"/><use xlink:href="#L1_13" x="350" y="0"/><use xlink:href="#L1_13" x="-350" y="350"/><use xlink:href="#L1_13" x="0" y="350"/><use xlink:href="#L1_13" x="350" y="350"/></pattern><rect x="0" y="0" width="100%" height="100%" fill="url(#pattern_L1_13)"/></g><g fi:class="KUsePattern"><pattern id="pattern_L1_14" width="350" height="350" patternUnits="userSpaceOnUse"><use xlink:href="#L1_14" x="-350" y="-350"/><use xlink:href="#L1_14" x="0" y="-350"/><use xlink:href="#L1_14" x="350" y="-350"/><use xlink:href="#L1_14" x="-350" y="0"/><use xlink:href="#L1_14" x="0" y="0"/><use xlink:href="#L1_14" x="350" y="0"/><use xlink:href="#L1_14" x="-350" y="350"/><use xlink:href="#L1_14" x="0" y="350"/><use xlink:href="#L1_14" x="350" y="350"/></pattern><rect x="0" y="0" width="100%" height="100%" fill="url(#pattern_L1_14)"/></g><g fi:class="KUsePattern"><pattern id="pattern_L1_17" width="350" height="350" patternUnits="userSpaceOnUse"><use xlink:href="#L1_17" x="-350" y="-350"/><use xlink:href="#L1_17" x="0" y="-350"/><use xlink:href="#L1_17" x="350" y="-350"/><use xlink:href="#L1_17" x="-350" y="0"/><use xlink:href="#L1_17" x="0" y="0"/><use xlink:href="#L1_17" x="350" y="0"/><use xlink:href="#L1_17" x="-350" y="350"/><use xlink:href="#L1_17" x="0" y="350"/><use xlink:href="#L1_17" x="350" y="350"/></pattern><rect x="0" y="0" width="100%" height="100%" fill="url(#pattern_L1_17)"/></g><g fi:class="KUsePattern"><pattern id="pattern_L1_20" width="350" height="350" patternUnits="userSpaceOnUse"><use xlink:href="#L1_20" x="-350" y="-350"/><use xlink:href="#L1_20" x="0" y="-350"/><use xlink:href="#L1_20" x="350" y="-350"/><use xlink:href="#L1_20" x="-350" y="0"/><use xlink:href="#L1_20" x="0" y="0"/><use xlink:href="#L1_20" x="350" y="0"/><use xlink:href="#L1_20" x="-350" y="350"/><use xlink:href="#L1_20" x="0" y="350"/><use xlink:href="#L1_20" x="350" y="350"/></pattern><rect x="0" y="0" width="100%" height="100%" fill="url(#pattern_L1_20)"/></g><g fi:class="KUsePattern"><pattern id="pattern_L1_19" width="350" height="350" patternUnits="userSpaceOnUse"><use xlink:href="#L1_19" x="-350" y="-350"/><use xlink:href="#L1_19" x="0" y="-350"/><use xlink:href="#L1_19" x="350" y="-350"/><use xlink:href="#L1_19" x="-350" y="0"/><use xlink:href="#L1_19" x="0" y="0"/><use xlink:href="#L1_19" x="350" y="0"/><use xlink:href="#L1_19" x="-350" y="350"/><use xlink:href="#L1_19" x="0" y="350"/><use xlink:href="#L1_19" x="350" y="350"/></pattern><rect x="0" y="0" width="100%" height="100%" fill="url(#pattern_L1_19)"/></g><g fi:class="KUsePattern" transform="matrix(1 0 0 1 20 20)"><pattern id="pattern_UNKNOWN" width="350" height="350" patternUnits="userSpaceOnUse"><use xlink:href="#UNKNOWN" x="-350" y="-350"/><use xlink:href="#UNKNOWN" x="0" y="-350"/><use xlink:href="#UNKNOWN" x="350" y="-350"/><use xlink:href="#UNKNOWN" x="-350" y="0"/><use xlink:href="#UNKNOWN" x="0" y="0"/><use xlink:href="#UNKNOWN" x="350" y="0"/><use xlink:href="#UNKNOWN" x="-350" y="350"/><use xlink:href="#UNKNOWN" x="0" y="350"/><use xlink:href="#UNKNOWN" x="350" y="350"/></pattern><rect x="0" y="0" width="100%" height="100%" fill="url(#pattern_UNKNOWN)"/></g><g fi:class="KUsePattern"><pattern id="pattern_L1_21" width="350" height="350" patternUnits="userSpaceOnUse"><use xlink:href="#L1_21" x="-350" y="-350"/><use xlink:href="#L1_21" x="0" y="-350"/><use xlink:href="#L1_21" x="350" y="-350"/><use xlink:href="#L1_21" x="-350" y="0"/><use xlink:href="#L1_21" x="0" y="0"/><use xlink:href="#L1_21" x="350" y="0"/><use xlink:href="#L1_21" x="-350" y="350"/><use xlink:href="#L1_21" x="0" y="350"/><use xlink:href="#L1_21" x="350" y="350"/></pattern><rect x="0" y="0" width="100%" height="100%" fill="url(#pattern_L1_21)"/></g><g fi:class="KUsePattern"><pattern id="pattern_L1_22" width="350" height="350" patternUnits="userSpaceOnUse"><use xlink:href="#L1_22" x="-350" y="-350"/><use xlink:href="#L1_22" x="0" y="-350"/><use xlink:href="#L1_22" x="350" y="-350"/><use xlink:href="#L1_22" x="-350" y="0"/><use xlink:href="#L1_22" x="0" y="0"/><use xlink:href="#L1_22" x="350" y="0"/><use xlink:href="#L1_22" x="-350" y="350"/><use xlink:href="#L1_22" x="0" y="350"/><use xlink:href="#L1_22" x="350" y="350"/></pattern><rect x="0" y="0" width="100%" height="100%" fill="url(#pattern_L1_22)"/></g><g fi:class="KUsePattern"><pattern id="pattern_L1_23" width="350" height="350" patternUnits="userSpaceOnUse"><use xlink:href="#L1_23" x="-350" y="-350"/><use xlink:href="#L1_23" x="0" y="-350"/><use xlink:href="#L1_23" x="350" y="-350"/><use xlink:href="#L1_23" x="-350" y="0"/><use xlink:href="#L1_23" x="0" y="0"/><use xlink:href="#L1_23" x="350" y="0"/><use xlink:href="#L1_23" x="-350" y="350"/><use xlink:href="#L1_23" x="0" y="350"/><use xlink:href="#L1_23" x="350" y="350"/></pattern><rect x="0" y="0" width="100%" height="100%" fill="url(#pattern_L1_23)"/></g></svg>